<?xml version="1.0" encoding="UTF-8"?>
<svg xmlns="http://www.w3.org/2000/svg" id="a" width="865.76" height="682.89" viewBox="0 0 865.76 682.89">
  <g>
    <polygon points="762.85 358.54 762.85 302.86 467.03 302.86 467.03 566.79 762.85 537.55 762.85 460.64 762.85 358.54" fill="#e3e4e5" stroke="#231f20" stroke-linecap="round" stroke-linejoin="round"></polygon>
    <polygon points="467.03 302.86 467.03 566.79 390.73 556.08 316.62 545.67 258.82 537.55 258.82 302.86 366.28 146.32 467.03 302.86" fill="#fff" stroke="#231f20" stroke-miterlimit="10"></polygon>
    <polygon points="794.07 315.74 497.48 315.74 366.28 123.88 436.56 124.67 472.98 125.08 661.31 127.21 794.07 315.74" fill="#e3e4e5" stroke="#231f20" stroke-linecap="round" stroke-linejoin="round"></polygon>
    <polygon points="482.21 327 782.71 327 794.07 315.74 497.49 315.74 482.21 327 482.21 327" fill="#0373b1" stroke="#231f20" stroke-miterlimit="10"></polygon>
    <rect x="514.22" y="370.08" width="50.57" height="106.23" fill="#fff" stroke="#231f20" stroke-miterlimit="10"></rect>
    <rect x="643.9" y="370.08" width="50.57" height="106.23" fill="#fff" stroke="#231f20" stroke-miterlimit="10"></rect>
    <path d="M413.46,428.54c2.16-4.95,7.58-7.47,12.55-9.56l8.29-3.51c1.12-.48,2.29-.96,3.52-1.04,.93-.06,1.86,.12,2.79,.03,4.35-.39,6.11-5.62,7.4-9.8,3.11-10.08,9.13-18.97,15.07-27.69-5.14,7.37-10.44,15.16-11.45,24.09-.31,2.75-.21,5.58-.97,8.24-.76,2.67-2.66,5.26-5.38,5.77-1.64,.31-3.68-.03-4.7,1.29-.49,.64-.59,1.52-1.07,2.17-.79,1.08-2.33,1.19-3.65,1.4-4.43,.67-8.27,3.32-11.93,5.9-2.92,2.06-5.94,4.2-7.91,7.2-1.91,2.92-2.69,6.42-3.42,9.83-6.07,.65-9.48,7.42-10.46,13.45-.98,6.03-11.28,28.6-14.87,33.54,1.08-1.49-7.18-17.91-7.13-20.39,.11-5.41,17.07-21.66,18.4-26.91,.96-3.82,1.35-7.67,5.38-8.8,5.29-1.47,6.86,.92,9.54-5.22Z" fill="#e3e4e5" stroke="#231f20" stroke-linecap="round" stroke-linejoin="round"></path>
    <polygon points="390.73 362.78 390.73 556.08 316.62 545.67 316.62 362.78 390.73 362.78" fill="#e3e4e5" stroke="#231f20" stroke-linecap="round" stroke-linejoin="round"></polygon>
    <rect x="554.92" y="370.08" width="9.87" height="106.23" fill="#e3e4e5" stroke="#231f20" stroke-linecap="round" stroke-linejoin="round"></rect>
    <rect x="684.6" y="370.08" width="9.87" height="106.23" fill="#e3e4e5" stroke="#231f20" stroke-linecap="round" stroke-linejoin="round"></rect>
    <path d="M383.4,248.46c0,15.71-8.66,28.45-19.34,28.45s-19.34-12.74-19.34-28.45,8.66-28.45,19.34-28.45,19.34,12.74,19.34,28.45Z" fill="#e3e4e5" stroke="#231f20" stroke-linecap="round" stroke-linejoin="round"></path>
    <path d="M355.13,248.46c0-13.05,5.99-24.05,14.14-27.39-1.65-.69-3.42-1.04-5.2-1.05-10.68,0-19.34,12.74-19.34,28.45s8.66,28.45,19.34,28.45c1.79,0,3.55-.36,5.2-1.05-8.16-3.34-14.14-14.34-14.14-27.39Z" fill="#fff" stroke="#231f20" stroke-miterlimit="10"></path>
    <polygon points="366.28 146.32 482.21 327 497.49 315.74 366.28 123.87 232.65 312.2 246.47 320.32 366.28 146.32 366.28 146.32" fill="#0373b1" stroke="#231f20" stroke-miterlimit="10"></polygon>
    <polygon points="514.22 420.21 564.79 434.59 564.79 447.97 514.22 434.09 514.22 420.21" fill="#e3e4e5" stroke="#231f20" stroke-linecap="round" stroke-linejoin="round"></polygon>
    <polygon points="514.22 450.16 564.79 399.31 564.79 413.05 513.92 466.91 514.22 450.16" fill="#e3e4e5" stroke="#231f20" stroke-linecap="round" stroke-linejoin="round"></polygon>
    <polygon points="635.94 382.22 701.95 399.31 701.95 411.57 638.14 394.11 635.94 382.22" fill="#e3e4e5" stroke="#231f20" stroke-linecap="round" stroke-linejoin="round"></polygon>
    <polygon points="700.09 425.45 700.09 437.59 635.94 457.25 635.25 441.35 700.09 425.45" fill="#e3e4e5" stroke="#231f20" stroke-linecap="round" stroke-linejoin="round"></polygon>
    <polygon points="258.82 523.18 467.03 551.13 762.85 524.26 762.85 537.55 467.03 566.79 258.82 537.55 258.82 523.18" fill="#0373b1" stroke="#231f20" stroke-miterlimit="10"></polygon>
    <polygon points="477.07 185.97 485.52 153.49 436.56 124.67 472.98 125.08 506.41 146.29 492.62 178.15 524.29 213.36 477.07 185.97" fill="#fff" stroke="#231f20" stroke-miterlimit="10"></polygon>
  </g>
  <g>
    <g>
      <path d="M262.1,520.92c-11.47-3.82-18.73,4.59-18.73,4.59-9.93,9.17-17.96,3.44-17.96,3.44-8.79-5.74-15.29-3.82-15.29-3.82-4.2,1.91-4.97-.88-4.97-.88l-3.05-19.77c3.05-1.52,3.05-4.65,3.05-4.67l39.71,3.87,2.23,4c1.8,3.22,4.72,5.73,8.26,6.78,5.28,1.57,6.75,6.46,6.75,6.46Z" fill="#ff993f" stroke="#231f20" stroke-miterlimit="10"></path>
      <path d="M122.79,609.3c1.31,.58,9.47,3.85,26.84,3.65,.15,0,.21-.21,.08-.29l-6.84-4.21s-.03-.01-.04-.02l-11.01-2.7s-.02,0-.04,0h-5.94s-.08,.02-.11,.05l-2.99,3.27c-.07,.08-.05,.2,.05,.24Z" fill="#231f20" stroke="#231f20" stroke-miterlimit="10"></path>
      <rect x="246.49" y="116.78" width="2.29" height="27.98" transform="translate(219.2 -147.83) rotate(56.33)" fill="#fff" stroke="#231f20" stroke-miterlimit="10"></rect>
      <path d="M228.47,137.95l3.86-2.45c.22-.14,.49-.2,.76-.16l2.17-.13c.31,.04,.58,.21,.76,.47l2.84,4.11c.2,.29,.25,.66,.14,.99l-.86,1.81c-.07,.22-.21,.41-.39,.54l-4.11,3.06-5.16-8.23Z" fill="#e3e4e5" stroke="#231f20" stroke-miterlimit="10"></path>
      <path d="M219.35,142.3l6.61-4.35c1.11-.73,2.58-.61,3.55,.3,1.41,1.31,3.3,3.53,4.37,6.67,.42,1.23-.04,2.59-1.12,3.32l-6.52,4.41-6.89-10.35Z" fill="#fff" stroke="#231f20" stroke-miterlimit="10"></path>
      <ellipse cx="222.79" cy="147.47" rx="1.44" ry="6.22" transform="translate(-44.39 148.24) rotate(-33.67)" fill="#e3e4e5" stroke="#231f20" stroke-miterlimit="10"></ellipse>
      <path d="M220.42,152.63l-3.08-4.09,5.03-3.89c.83,.96,1.68,2.1,2.45,3.43,.17,.3,.34,.6,.49,.89-1.63,1.22-3.26,2.45-4.89,3.67Z" fill="#fff" stroke="#231f20" stroke-miterlimit="10"></path>
      <path d="M129.01,130.98s-.68-.29-2.21,.85l-4.2,2.68-12.61,4.2s-14.91,4.2-19.87,14.14c-4.97,9.94-12.99,38.22-12.99,38.22l34.4,5.35-1.15,5.35h86.76l-3.44-17.96,32.87,4.2s-2.68-40.13-14.91-45.48c0,0-22.6-6.56-29.45-11.69l-53.19,.13Z" fill="#ff993f" stroke="#231f20" stroke-miterlimit="10"></path>
      <path d="M116.94,200.65l-1.6-21.42,4.36-1.01s3.75-33.42-8.52-39.9l9.52-3.04s2.55,2.38,5.01,8.39c2.29,5.59,3.32,11.61,3.13,17.64l-.5,16.39,39.04-2.68,5.88,14.61-.58,15.95-55.74-4.94Z" fill="#0373b1" stroke="#231f20" stroke-miterlimit="10"></path>
      <path d="M250.76,404.35c-4.46,15.87-5.15,50.41-6.81,67.99-.66,7.03-.34,14.12,.92,21.06l1.18,6.5c-.38,9.17-14.91,9.17-14.91,9.17-24.08,.38-31.34-16.43-31.34-16.43l2.29-24.47c1.02-10.91,.68-21.91-1.02-32.73l-2.42-15.42c-2.8-10.32-1.96-18.1-.7-22.93,1.24-4.72,.86-9.72-1.05-14.21-10.68-25.18-24.25-35.86-24.25-35.86,2.68,17.2-7.26,36.31-7.26,36.31l-1.53,9.94c1.53,15.67,5.16,34.75,5.16,34.75,1.91,26.75,13.17,143.13,13.17,143.13l-48.13,3.29c-.69-11.98,.15-20.07,.92-24.61,.5-2.91-.41-5.88-2.47-8l-6.81-7c-3.06-3.15-4.95-7.27-5.25-11.65-.57-8.47,.23-19.84,.23-19.84,.76-19.49-3.06-35.93-3.06-35.93-4.6-9.71-1.85-18.73,.47-23.65,1.18-2.49,1.64-5.26,1.25-7.99-.84-5.97-.67-14.96-.44-20.46,.11-2.65-.56-5.26-1.87-7.57-4.94-8.67-8.2-30.63-8.2-30.63-7.86-39.06-2.25-90.93-.49-105,.31-2.43,.01-4.89-.85-7.18l-5.16-13.66v-6.12l59.09-31.78,47.54,18.97-1.15,27.14c.38,5.73-1.53,8.41-1.53,8.41,.76,0,.38,.38,.38,.38l1.91,9.56,.76,.38c8.94,10.36,23.32,44.32,23.32,44.32l10.71,28.99h0c.62,1.32,1.38,2.58,2.24,3.76,2.4,3.28,3.85,6.87,5.04,10.75,2.48,8.11,5.17,21.76,.09,38.32Z" fill="#0373b1" stroke="#231f20" stroke-miterlimit="10"></path>
      <path d="M171.52,594.68c-4.59,2.68-6.5,2.29-6.5,2.29-5.35-.76-6.5,3.44-6.5,3.44-1.82,5.78-10.42,5.51-13.86,5.16-.83-.08-1.57-.53-2.1-1.19-2.01-2.51-5.06-2.82-5.06-2.82l-7.92-.91c-3.71-1.28-4.7,1.29-4.7,1.29-1.15,1.53-1.53,.76-1.53,.76-.08-.56-.07-1.12,0-1.67,.37-2.88,2.55-5.53,4.36-7.28,3.37-3.27,5.89-7.35,7.07-11.9,1.11-4.26,1.07-7.55,1.07-7.55l34.34-2.35,1.31,22.73Z" fill="#ff993f" stroke="#231f20" stroke-miterlimit="10"></path>
      <path d="M164.26,603.46v-1.52c-4.97-1.15-5.73,1.38-5.73,1.38v5.5c-1.91,6.88-14.14,3.06-14.14,3.06-13.41-5.08-20.98-2.93-21.73-2.7-.03,0-.06-.01-.05-.05l.71-8.06,.06-.04c-.07,.55-.08,1.11,0,1.67,0,0,.38,.76,1.53-.76,0,0,.99-2.57,4.7-1.29l7.92,.91s3.05,.31,5.06,2.82c.52,.66,1.27,1.1,2.1,1.19,3.44,.35,12.04,.62,13.86-5.16,0,0,1.15-4.2,6.5-3.44,0,0,1.91,.38,6.5-2.29v5.73c-3.44,1.91-7.26,3.05-7.26,3.05Z" fill="#fff" stroke="#231f20" stroke-miterlimit="10"></path>
      <path d="M164.26,603.46l-5.73-.14s.76-2.52,5.73-1.38v1.52Z" fill="#231f20" stroke="#231f20" stroke-miterlimit="10"></path>
      <path d="M345.04,555.7l-4.59,1.15v1.15l-6.12,1.15h-1.15l-19.49,3.44-3.44-.38s-25.61,6.12-39.75,6.88v.76l-35.93,6.11-3.82-.76s-12.61,3.82-28.09-.76l-35.74-8.06s-2.3-.35-2.3-1.5v-2.21s0-1.99,2.3-1.99l1.91-14.53s-.77-3.44,6.88-4.59l111.61-14.91s3.46-.91,11.86,1.65l35.92,7.52s4.59,.76,5.35,5.35l1.91,9.93s3.06-.76,2.68,4.59Z" fill="#fff" stroke="#231f20" stroke-miterlimit="10"></path>
      <path d="M345.04,555.7v.3c0,.51-.32,.96-.8,1.12l-.34,.12-.31,12.22c-.04,1.55-1.2,2.83-2.74,3.02l-.39,.05-3.44,45.86c.38,2.68-1.15,3.06-1.15,3.06l-3.44,1.15c-1.91,.38-3.06-.38-3.06-.38l-74.18,17.39-1.87-.19-33.24,7.94c-1.27,.31-2.59,.36-3.89,.15l-6.14-.98c-1.28-.2-2.23-1.31-2.23-2.6v-1.57l-24.84-6.76-4.2,1.15-4.68-1.76c-.87-.33-1.47-1.14-1.54-2.07l-3.43-49.69-1.64-.85c-.81-.42-1.33-1.25-1.36-2.16l-.34-13.04-.69-.46c-.28-.19-.46-.51-.46-.86v-.97c0,1.15,2.3,1.5,2.3,1.5l35.74,8.06c15.48,4.59,28.09,.76,28.09,.76l3.82,.76,35.93-6.11v-.76c14.14-.76,39.75-6.88,39.75-6.88l3.44,.38,19.49-3.44h1.15l6.12-1.15v-1.15l4.59-1.15Z" fill="#e3e4e5" stroke="#231f20" stroke-miterlimit="10"></path>
      <path d="M166.93,560.67s-.76,1.47,1.6,2.18l42.84,9.11s10.46,1.97,18.24-1.1l-.47-7.78s-.1-2.23,2.07-2.41l27.17-3.72,2.83,.71s2.12,.47,2.59,3.3l.71,4.48,4.09-.67s5.81-.03,11.94-1.21c0,0,18.63-2.83,28.77-5.66l-.94-6.84s-.24-2.12,1.41-2.59l24.05-3.77,3.07,.94s2.12,.24,2.36,2.83l.71,4.24s1.71-.11,2.39-1.59" fill="none" stroke="#231f20" stroke-linecap="round" stroke-linejoin="round"></path>
      <path d="M169.13,583.22l38.08,9.1s10.61,2.59,19.57,.94l113.67-20.75" fill="none" stroke="#231f20" stroke-linecap="round" stroke-linejoin="round"></path>
      <line x1="183.91" y1="586.75" x2="182.99" y2="635.58" fill="none" stroke="#231f20" stroke-linecap="round" stroke-linejoin="round"></line>
      <line x1="207.83" y1="642.35" x2="203.25" y2="591.38" fill="none" stroke="#231f20" stroke-linecap="round" stroke-linejoin="round"></line>
      <line x1="232.76" y1="592.17" x2="227.1" y2="645.67" fill="none" stroke="#231f20" stroke-linecap="round" stroke-linejoin="round"></line>
      <line x1="253.31" y1="639.4" x2="253.31" y2="588.42" fill="none" stroke="#231f20" stroke-linecap="round" stroke-linejoin="round"></line>
      <line x1="255.19" y1="639.59" x2="255.19" y2="588.08" fill="none" stroke="#231f20" stroke-linecap="round" stroke-linejoin="round"></line>
      <line x1="311.31" y1="577.84" x2="306.22" y2="627.63" fill="none" stroke="#231f20" stroke-linecap="round" stroke-linejoin="round"></line>
      <line x1="329.37" y1="622.2" x2="328.66" y2="574.67" fill="none" stroke="#231f20" stroke-linecap="round" stroke-linejoin="round"></line>
      <line x1="331.32" y1="622.69" x2="330.22" y2="574.43" fill="none" stroke="#231f20" stroke-linecap="round" stroke-linejoin="round"></line>
      <path d="M108.59,269.3s59.07,20.6,97.71-1.4c0,0,.8-.11,.38,.38l1.91,9.56s-19.65,27.52-101.43,3.92l1.42-12.45Z" fill="#ff993f" stroke="#231f20" stroke-miterlimit="10"></path>
      <path d="M182.2,130.85c-6.74,21.17-17.91,30.21-22.79,33.29-1.61,1.01-3.62,1.08-5.3,.19-12.17-6.51-25.09-33.34-25.09-33.34,3.57-3,5.3-5.2,6.12-6.49,.45-.72,.69-1.55,.69-2.4v-12.75c3.76,7.23,11.31,12.17,20.02,12.17,7.82,0,14.71-3.98,18.76-10.03l-.58,10.68c-.07,1.28,.36,2.55,1.22,3.5,2.75,3.05,6.94,5.18,6.94,5.18Z" fill="#faa27f" stroke="#231f20" stroke-miterlimit="10"></path>
      <path d="M178.4,83.3v15.67c0,4.62-1.39,8.94-3.79,12.51h0c-4.05,6.05-10.94,10.03-18.76,10.03-8.71,0-16.27-4.94-20.02-12.17h0c-1.62-3.11-2.53-6.64-2.53-10.38v-15.67c0-.8,.04-1.6,.13-2.38,1.18-11.34,10.77-20.17,22.42-20.17,6.23,0,11.86,2.52,15.94,6.6,3.31,3.31,5.59,7.63,6.34,12.47,.18,1.14,.27,2.3,.27,3.48Z" fill="#faa27f" stroke="#231f20" stroke-miterlimit="10"></path>
      <path d="M186.81,74.12v-4.97c0-1.06-.86-1.91-1.91-1.91h-.76c-1.53-27.14-17.2-29.05-17.2-29.05-.76-2.68-11.08-2.86-11.08-2.86-11.47-.56-11.47,2.48-11.47,2.48-14.85,2.12-18.91,23.54-19.43,26.74-.03,.21-.23,.35-.44,.31-2.33-.47-2.68,1.44-2.68,1.44v3.52c0,.95,.37,1.89,1.1,2.49,.81,.67,2.15,1.05,4.25-.1,0,0,17.58-6.88,50.07-1.91,0,0,4.59,.76,6.88,3.06,0,0,2.29,2.29,2.68,.76Z" fill="#ff993f" stroke="#231f20" stroke-miterlimit="10"></path>
      <path d="M122.23,71.4c-.21-.39-.63-.64-1.06-.57-.53,.1-1.07,.63-.86,2.52l.84,5.59s1.07,5.71,6.04,4.26c0,0,.27-2.12,1.86-3.12,0,0-.69-4.7,3.31-9.35,0,0-3.26,.7-5.17,1.47,0,0-3.48,1.92-4.96-.81Z" fill="#ff993f" stroke="#231f20" stroke-miterlimit="10"></path>
      <path d="M186.81,74.12s.76-1.12,1.38-.48c.22,.23,.27,.56,.18,.86-.35,1.13-1.56,4.57-4.14,8.02,0,0-.35-2.01-1.75-3.1,0,0,.01-.02,.04-.05,.62-.71,.54-1.8-.23-2.33-.02-.02-.04-.03-.07-.05-1.05-.71-1.89-1.68-2.44-2.82-.69-1.42-2.26-3.3-5.83-4.35,0,0,7.14,.47,10.2,3.53,0,0,2.29,2.29,2.68,.76Z" fill="#ff993f" stroke="#231f20" stroke-miterlimit="10"></path>
      <path d="M133.43,80.92c-.08,.78-.13,1.58-.13,2.38v11.01c-2.18-.07-4.58-2.47-5.69-5.9-1.29-3.96-.37-7.81,2.04-8.59,1.21-.39,2.56,.06,3.78,1.11Z" fill="#faa27f" stroke="#231f20" stroke-miterlimit="10"></path>
      <path d="M184.26,87.08c-.77,4.06-3.38,6.98-5.86,6.57v-10.35c0-1.18-.09-2.34-.27-3.48,.94-.82,2-1.2,3.03-1.01,2.49,.47,3.88,4.17,3.1,8.27Z" fill="#faa27f" stroke="#231f20" stroke-miterlimit="10"></path>
      <path d="M173.97,69.84s-.02,0-.01,.01c.32,.38,4.44,5.37,4.44,13.45v5.41s2.49-2.19,2.67-5.43c.02-.33,.04-.66,.11-.99,.15-.8,.54-2.17,1.4-2.96,.65-.6,.61-1.63-.11-2.15-.02-.01-.03-.02-.05-.04-1.12-.81-2.01-1.89-2.66-3.11-.7-1.32-2.26-3.01-5.79-4.19Z" fill="#231f20" stroke="#231f20" stroke-miterlimit="10"></path>
      <path d="M137.86,69.7s-.42,4.15-3.44,6.58c0,0-1.49,3-1.11,13.61,0,0-1.37-1.87-2.77-4.53-2.43-4.6-1.94-10.28,1.46-14.21,.12-.14,.24-.27,.36-.4l5.5-1.04Z" fill="#231f20" stroke="#231f20" stroke-miterlimit="10"></path>
      <path d="M124.89,64.95s32.25-10.02,59.24,2.29" fill="none" stroke="#231f20" stroke-linecap="round" stroke-linejoin="round"></path>
      <path d="M144.38,37.81s2.86,9.66,2.26,23.5" fill="none" stroke="#231f20" stroke-linecap="round" stroke-linejoin="round"></path>
      <path d="M166.93,38.19s2.98,10.81,3.52,24.62" fill="none" stroke="#231f20" stroke-linecap="round" stroke-linejoin="round"></path>
      <line x1="111.51" y1="196.43" x2="115.5" y2="181.44" fill="none" stroke="#231f20" stroke-linecap="round" stroke-linejoin="round"></line>
      <path d="M78.16,191.24s-13.28,36.91-1.81,57.17c0,0,2.68,6.88,32.49,1.91,0,0,36.69-8.41,58.86-18.35l-34.02-13.38s-6.88,4.2-22.17-1.91l-3.82-.76,2.68-14.14,1.15-5.35-33.35-5.19Z" fill="#faa27f" stroke="#231f20" stroke-miterlimit="10"></path>
      <path d="M226.56,188.02s1.91,41.28-10.32,45.48c0,0-24.08,8.03-48.54-1.53l-34.02-13.38s-6.88,4.2-22.17-1.91l-7.6-.95c-.58-.07-.84-.75-.47-1.2,.4-.49,.86-1.2,1.28-2.2l.68-2.15s-.38-2.68,2.68-4.59c0,0-.38-3.82,5.35-4.59,0,0,7.05-1.01,10.77-.19,1.06,.23,2.13,.38,3.21,.35,.03,0,.06,0,.08,0,.85-.03,1.7-.17,2.53-.35,1.29-.29,5.37-.57,17.41,1.72,0,0,15.29,1.53,25.23,.38,0,0,13.77-3.56,24.08-3.12l-3.06-15.99,32.87,4.2Z" fill="#faa27f" stroke="#231f20" stroke-miterlimit="10"></path>
      <path d="M169.23,194.9l-5.73,3.44s-2.47,1.2-2,4.99c8.5-.02,11.17-.41,11.17-.41,0,0,15.29-3.82,25.23-3.06,0,0,0-3.44-3.44-2.29,0,0,.76-1.15-.38-3.06,0,0-1.53-3.06-4.97-1.53l-12.61,5.35s-4.2,0-6.88,1.15l-.38-4.59Z" fill="#faa27f" stroke="#231f20" stroke-miterlimit="10"></path>
      <line x1="194.45" y1="197.57" x2="190.75" y2="199.89" fill="none" stroke="#231f20" stroke-linecap="round" stroke-linejoin="round"></line>
      <path d="M211.08,147.31l4.06-2.87c1.34-.95,3.2-.62,4.13,.73l4.25,6.17c.93,1.36,.58,3.21-.79,4.13l-4.39,2.93-7.26-11.08Z" fill="#e3e4e5" stroke="#231f20" stroke-miterlimit="10"></path>
      <path d="M190.76,135.29s-4.82,11.06-3.81,23.1l9.54-5.75s-.32-9.56,2.45-14.23l-8.18-3.13Z" fill="#0373b1" stroke="#231f20" stroke-miterlimit="10"></path>
      <path d="M205.72,181.7l-16.62,11.29-11.21,4.75-1.4,.6c-4.97,0-6.88,1.15-6.88,1.15l-1.15-12.61c-.21-2.92-1.36-4.59-2.37-5.51-.46-.41-1-.7-1.59-.89-.25-.08-.51-.13-.77-.18-4.51-.68,5.19-7.76,5.19-7.76,13.46-13.24,32.59-22.79,39.21-25.88,1.35-.63,2.96-.18,3.79,1.06l5.85,8.77c.86,1.29,1.28,2.83,1.19,4.38-.2,3.46-1.42,6.72-2.93,9.52-2.46,4.55-6.04,8.4-10.32,11.3Z" fill="#fff" stroke="#231f20" stroke-miterlimit="10"></path>
      <path d="M178.19,186.26c-.58,3.03-1.06,7.36-.3,11.48l-1.4,.6c-4.97,0-6.88,1.15-6.88,1.15l-1.15-12.61c-.21-2.92-1.36-4.59-2.37-5.51-.46-.41-1-.7-1.59-.89,0,0,5-.98,10.84-5.07,0,0,2.79-1.91,4.83,0,0,0,1.62,1.21-.17,5.23-.8,1.81-1.44,3.68-1.82,5.62Z" fill="#e3e4e5" stroke="#231f20" stroke-miterlimit="10"></path>
      <path d="M169.23,175.02c-1.15-1.53-1.85-1.28-1.85-1.28" fill="none" stroke="#231f20" stroke-linecap="round" stroke-linejoin="round"></path>
      <path d="M169.23,172.24s1.15,.49,1.91,1.25" fill="none" stroke="#231f20" stroke-linecap="round" stroke-linejoin="round"></path>
      <path d="M170.77,170.78s1.15,.26,1.9,1.11" fill="none" stroke="#231f20" stroke-linecap="round" stroke-linejoin="round"></path>
      <path d="M172.32,169.38s1.49,.3,1.87,1.06" fill="none" stroke="#231f20" stroke-linecap="round" stroke-linejoin="round"></path>
      <rect x="180.53" y="181.8" width="5.35" height="1.53" rx=".76" ry=".76" transform="translate(-69.23 126.24) rotate(-32.32)" fill="#e3e4e5" stroke="#231f20" stroke-miterlimit="10"></rect>
      <rect x="179.76" y="185.57" width="8.39" height="1.53" rx=".76" ry=".76" transform="translate(-71.13 127.23) rotate(-32.32)" fill="#e3e4e5" stroke="#231f20" stroke-miterlimit="10"></rect>
      <rect x="179.2" y="189.38" width="10.74" height="1.53" rx=".76" ry=".76" transform="translate(-73.07 128.15) rotate(-32.32)" fill="#e3e4e5" stroke="#231f20" stroke-miterlimit="10"></rect>
      <rect x="202.29" y="158.16" width="1.91" height="3.53" rx=".96" ry=".96" transform="translate(-54.56 139.49) rotate(-33.67)" fill="#fff" stroke="#231f20" stroke-miterlimit="10"></rect>
      <rect x="205.08" y="162.47" width="1.91" height="3.53" rx=".96" ry=".96" transform="translate(-56.49 141.75) rotate(-33.67)" fill="#fff" stroke="#231f20" stroke-miterlimit="10"></rect>
      <rect x="207.86" y="166.67" width="1.91" height="3.53" rx=".96" ry=".96" transform="translate(-58.35 144) rotate(-33.67)" fill="#fff" stroke="#231f20" stroke-miterlimit="10"></rect>
      <path d="M108.07,205.6s4.37-.7,11.62,1.23" fill="none" stroke="#231f20" stroke-linecap="round" stroke-linejoin="round"></path>
      <path d="M105.4,210.19s5.89,.53,12.74,2" fill="none" stroke="#231f20" stroke-linecap="round" stroke-linejoin="round"></path>
      <path d="M108.35,268.95c5.62,1.97,12.18,3.89,19.58,5.38,7.67,1.55,14.69,2.83,20.8,3.18-3.19,9.29-6.38,18.18-9.57,27.38-.69,1.99-1.01,4.1-.96,6.21l1.43,53.85c.07,2.72-2.33,4.85-5.02,4.46l-6.75-.99h0c0,.93-.81,1.66-1.74,1.56l-32.37-3.61c-2.23-.25-3.86-2.21-3.7-4.44l2.55-36.8,.47-12.03,3.54-13.21,11.74-30.95Z" fill="#fff" stroke="#231f20" stroke-miterlimit="10"></path>
      <path d="M139.63,364.96l-1.07-40.4c-5.93,2.73-12.3,1.51-12.3,1.51l1.6,42.35,6.75,.99s4.74,.28,5.02-4.46Z" fill="#e3e4e5" stroke="#231f20" stroke-miterlimit="10"></path>
      <polygon points="122.28 301.56 126.05 302.27 122.99 323.02 118.9 323.02 122.28 301.56" fill="#0373b1" stroke="#231f20" stroke-miterlimit="10"></polygon>
      <polygon points="122.28 301.56 124.64 294.72 126.05 294.72 126.05 302.27 122.28 301.56" fill="#e3e4e5" stroke="#231f20" stroke-miterlimit="10"></polygon>
      <path d="M124.64,294.72l.62-2.07c.05-.17,.21-.29,.39-.29h0c.22,0,.41,.18,.41,.41v1.95h-1.41Z" fill="#0373b1" stroke="#231f20" stroke-miterlimit="10"></path>
      <path d="M112.85,311.7c.69,.28,1.66,1.07,2.83,1.2,1.32,.15,2.44-.46,3.22-.61-.13-.5-.27-.99-.4-1.49-.14-.53-.58-.92-1.12-1.01l-2.04-.32c-.52-.08-1.04,.14-1.35,.57l-1.16,1.65Z" fill="#e3e4e5" stroke="#231f20" stroke-miterlimit="10"></path>
      <path d="M112.85,311.7s-3.3,1.41-1.18,8.73l.47,1.89s2.59,.71,5.9,.47l.87-1.64s3.22-6.61,0-8.85c0,0-3.22,.83-6.05-.59Z" fill="#ff993f" stroke="#231f20" stroke-miterlimit="10"></path>
      <path d="M126.28,312.73c.73,.15,1.73,.27,2.91,.19,1.33-.09,2.41-.41,3.15-.69-.22-.46-.44-.93-.66-1.39-.23-.49-.73-.8-1.28-.79l-2.06,.05c-.53,.01-1,.32-1.22,.8l-.84,1.83Z" fill="#e3e4e5" stroke="#231f20" stroke-miterlimit="10"></path>
      <path d="M94.45,315.71l6.98-1.21-2.47-17.41c-.28-1.94-2.1-3.27-4.04-2.94h0c-1.85,.32-3.11,2.04-2.86,3.89l2.38,17.66Z" fill="#ff993f" stroke="#231f20" stroke-miterlimit="10"></path>
      <path d="M95.2,315.58l1.01,6.03s3.26-.36,4.88-.65h.27s-.47-4.09-.27-6.44l-5.89,1.06Z" fill="#fff" stroke="#231f20" stroke-miterlimit="10"></path>
      <path d="M128.27,323.8l.63,2.53s2.57,0,4-.25l-.08-2.77s-2.84,.57-4.56,.49Z" fill="#fff" stroke="#231f20" stroke-miterlimit="10"></path>
      <path d="M104.12,309.35v11.93s2.59,.33,4.95,.33l.33-12.22c.03-1.04-1.02-1.76-1.98-1.37l-3.31,1.33Z" fill="#e3e4e5" stroke="#231f20" stroke-miterlimit="10"></path>
      <path d="M103.93,309.52c-.79,.79-3.74,4.31-2.57,11.44l2.76,.32v-11.68c0-.1-.12-.15-.19-.08Z" fill="#0373b1" stroke="#231f20" stroke-miterlimit="10"></path>
      <path d="M93.03,314.11s4.06,8.88,30.79,7.62c1.24-.06,2.3,.9,2.35,2.15l1.68,44.56s.09,2.01-2.24,1.57c-.15-.03-.32-.07-.49-.12-2.83-.83-32.09-3.64-32.09-3.64,0,0-2.93-.63-2.99-4.29s0,0,0,0l2.48-35.68,.51-12.14Z" fill="#e3e4e5" stroke="#231f20" stroke-miterlimit="10"></path>
      <path d="M121.68,328.85c-.27-2.23-.97-5.13-1.41-6.84-.21-.82-1.01-1.34-1.84-1.22h0c-.96,.14-1.59,1.07-1.36,2.01,.43,1.81,1.05,4.7,1.22,6.98l3.4-.93Z" fill="#ff993f" stroke="#231f20" stroke-miterlimit="10"></path>
      <path d="M107.74,331.31s.27-4.55,1.69-7.88c.41-.95-.1-2.04-1.1-2.32h0c-.76-.21-1.57,.12-1.95,.81-.86,1.55-2.15,4.68-2.08,9.39,0,0,3.49,.04,3.44,0Z" fill="#ff993f" stroke="#231f20" stroke-miterlimit="10"></path>
      <path d="M94.24,317.87l3.16,11.78s2.11,.9,4.43,1.26l-4.04-14.03c-.27-.93-1.21-1.49-2.15-1.29h0c-1.04,.22-1.68,1.26-1.4,2.28Z" fill="#ff993f" stroke="#231f20" stroke-miterlimit="10"></path>
      <path d="M90.94,318.34l3.16,11.78s2.11,.9,4.43,1.26l-4.04-14.03c-.27-.93-1.21-1.49-2.15-1.29h0c-1.04,.22-1.68,1.26-1.4,2.28Z" fill="#ff993f" stroke="#231f20" stroke-miterlimit="10"></path>
      <path d="M125.13,369.87l-1.32-39.4c-.04-1.14-1.14-1.92-2.23-1.59-22.54,6.74-29.05-2.63-29.05-2.63l-2.48,35.68c-.15,2.23,1.48,4.19,3.7,4.44l31.37,3.5Z" fill="#e3e4e5" stroke="#231f20" stroke-miterlimit="10"></path>
      <path d="M126.28,312.73s-3,1.98,.4,8.8l.81,1.76c.14,.31,.44,.51,.78,.51,.83,.02,2.51-.02,4.56-.49,.33-.07,.59-.33,.67-.65l.43-1.72s1.99-7.08-1.58-8.71c0,0-3.03,1.39-6.06,.5Z" fill="#ff993f" stroke="#231f20" stroke-miterlimit="10"></path>
      <path d="M265.64,532.37c.04,1.08-.92,3.58-10.45,4.03l-22.9,2.48,12.61-5.73s12.71-8.48,20.39-1.5c.2,.19,.33,.45,.34,.72Z" fill="#231f20" stroke="#231f20" stroke-miterlimit="10"></path>
      <path d="M265.54,531.88c-8.41-7.39-20.63,1.27-20.63,1.27l-11.47,5.35c-9.94,3.44-8.03-3.55-8.03-3.55l-19.49,2.4-.77-13.11s.77,2.78,4.97,.88c0,0,6.5-1.91,15.29,3.82,0,0,8.03,5.73,17.96-3.44,0,0,7.26-8.41,18.73-4.59,.77,1.38,1.62,3.18,2.3,5.35,.66,2.13,.98,4.05,1.14,5.61Z" fill="#fff" stroke="#231f20" stroke-miterlimit="10"></path>
      <path d="M199.84,492.85l2.25,11.63s3.45-1.38,3.05-4.67c0,0-2.88-2.2-5.25-6.98-.02-.03-.06-.02-.06,.02Z" fill="#faa27f" stroke="#231f20" stroke-miterlimit="10"></path>
    </g>
    <line x1="172.67" y1="347.02" x2="168.54" y2="305.17" fill="none" stroke="#231f20" stroke-linecap="round" stroke-linejoin="round"></line>
  </g>
</svg>
