<?xml version="1.0" encoding="utf-8"?>
<!-- Generator: Adobe Illustrator 27.5.0, SVG Export Plug-In . SVG Version: 6.00 Build 0)  -->
<svg version="1.1" xmlns="http://www.w3.org/2000/svg" xmlns:xlink="http://www.w3.org/1999/xlink" x="0px" y="0px"
	 viewBox="0 0 2100 2000" style="enable-background:new 0 0 2100 2000;" xml:space="preserve">
<g id="Background">
	<rect style="fill:#FFFFFF;" width="2100" height="2000"/>
</g>
<g id="Object">
	<g>
		<ellipse style="fill:#D8D8D8;" cx="1785.737" cy="944.87" rx="166.622" ry="14.007"/>
		<g>
			<path style="fill:#1A7188;" d="M1853.918,262.271c0,0,62.039,21.452,75.023,79.93l-68.197,22.319l-22.966-51.124
				L1853.918,262.271z"/>
			<g>
				<g>
					<g>
						<path style="fill:#3F3B38;" d="M1740.643,941.817h-97.773c-0.297-26.643,28.096-34.013,57.215-41.7l1.044-14.486
							l15.355-10.419l22.872,6.375l-1.318,22.872C1743.819,917.208,1740.643,941.817,1740.643,941.817z"/>
						<path style="fill:#2C2825;" d="M1740.643,941.817h-97.773c-0.297-26.643,28.096-34.013,57.215-41.7
							c0,0,8.112,7.243,37.953,4.341C1743.819,917.208,1740.643,941.817,1740.643,941.817z"/>
					</g>
					<path style="fill:#5E595B;" d="M1787.659,437.929V546.4l-0.355,2.893l-41.576,338.935h-53.426l12.602-366.99l0.658-19.201
						l1.023-29.85c0,0,20.955-10.546,38.245-20.204c12.676-7.079,23.378-13.687,22.396-15.327c-0.7-1.18,7.852-0.408,20.078,1.221
						C1787.419,437.897,1787.534,437.909,1787.659,437.929z"/>
				</g>
				<g>
					<g>
						<path style="fill:#3F3B38;" d="M1833.969,941.817h97.773c0.297-26.643-28.096-34.013-57.215-41.7l-1.044-14.486
							l-15.355-10.419l-22.872,6.375l1.318,22.872C1830.793,917.208,1833.969,941.817,1833.969,941.817z"/>
						<path style="fill:#2C2825;" d="M1833.969,941.817h97.773c0.297-26.643-28.096-34.013-57.215-41.7
							c0,0-8.111,7.243-37.953,4.341C1830.793,917.208,1833.969,941.817,1833.969,941.817z"/>
					</g>
					<path style="fill:#5E595B;" d="M1786.953,437.925v108.472l41.931,341.826h53.426l-13.26-386.19l-1.023-29.851
						c0,0-62.959-31.668-60.641-35.531C1808.096,435.461,1799.367,436.255,1786.953,437.925z"/>
				</g>
				<path style="fill:#3F3C3D;" d="M1871.458,491.314c0,0-0.866,1.034-2.683,2.746c-7.695,7.278-32.492,26.781-81.116,31.866
					c-0.23,0.032-0.47,0.052-0.71,0.073c-22.197,2.254-49.344,1.503-82.045-4.762l0.658-19.201l1.023-29.85
					c0,0,20.955-10.546,38.245-20.204l42.119,13.083l0.71,0.219l80.991,25.152L1871.458,491.314z"/>
				<path style="fill:#3F3C3D;" d="M1807.105,540.843c0,0-17.647,16.235-37.058,8.47
					C1770.047,549.313,1790.693,548.255,1807.105,540.843z"/>
			</g>
			<g>
				<g>
					<path style="fill:#FEA200;" d="M1871.458,491.314c0,0-83.653,27.146-167.306,0c0,0,0-0.114,0.01-0.333
						c0-0.053,0.522-8.656,1.368-22.48c0.167-2.6,0.334-5.378,0.512-8.332c0.24-3.852,0.501-7.998,0.773-12.372
						c0.125-1.984,0.25-4.019,0.376-6.087c0.178-2.714,0.344-5.492,0.532-8.343c0.282-4.448,0.574-9.042,0.877-13.751
						c3.122-49.104,7.215-110.58,9.856-140.044v-0.01c0.95-10.462,1.713-16.894,2.182-17.29c0.699-0.585,4.02-1.566,8.843-2.757
						c4.886-1.201,11.308-2.62,18.094-4.041c18.512-3.905,39.707-7.904,39.707-7.904s21.226,3.863,39.759,7.747
						c5.795,1.211,11.329,2.422,15.86,3.519c5.878,1.43,10.086,2.662,11.015,3.435c0.355,0.292,0.887,3.998,1.545,10.263
						c2.694,25.424,7.518,93.04,11.172,146.445c0.324,4.667,0.626,9.23,0.929,13.636c0.188,2.84,0.376,5.627,0.553,8.343
						c0.146,2.109,0.282,4.176,0.417,6.201c0.292,4.302,0.574,8.395,0.825,12.216c0.188,2.945,0.376,5.732,0.543,8.343
						C1870.874,482.241,1871.458,491.314,1871.458,491.314z"/>
					<path style="fill:#FFF2DB;" d="M1835.12,256.894l-47.845,72.133l-47.783-71.944c22.277-4.699,47.783-9.511,47.783-9.511
						S1812.818,252.22,1835.12,256.894z"/>
					<path style="fill:#1A7188;" d="M1827.039,255.318l-39.759,54.648l-39.707-54.491c18.512-3.905,39.707-7.904,39.707-7.904
						S1808.506,251.434,1827.039,255.318z"/>
					<g>
						<path style="fill:#FFF2DB;" d="M1868.535,447.159c-31.062,0.815-62.875,1.233-95.044,1.233
							c-22.521,0-44.771-0.199-66.676-0.596c0.125-1.984,0.25-4.019,0.376-6.087c0.178-2.714,0.344-5.492,0.532-8.343
							c0.282-4.448,0.574-9.042,0.877-13.751c21.321,0.376,42.986,0.564,64.891,0.564c31.532,0,62.708-0.407,93.144-1.201
							c0.324,4.667,0.626,9.23,0.929,13.636c0.188,2.84,0.376,5.627,0.553,8.343
							C1868.264,443.066,1868.399,445.134,1868.535,447.159z"/>
					</g>
				</g>
				<g>
					<path style="fill:#FFF2DB;" d="M1842.892,422.372c0.522,4.291-2.537,8.196-6.828,8.718c-0.324,0.032-0.637,0.052-0.95,0.052
						c-3.905,0-7.277-2.903-7.768-6.88c-0.376-3.111-9.031-77.2,15.557-165.427c5.878,1.43,10.086,2.662,11.015,3.435
						c0.355,0.292,0.887,3.998,1.545,10.263C1834.905,353.514,1842.809,421.673,1842.892,422.372z"/>
				</g>
				<g>
					<path style="fill:#FFF2DB;" d="M1744.862,424.262c-0.491,3.978-3.863,6.88-7.768,6.88c-0.313,0-0.637-0.01-0.961-0.052
						c-4.291-0.522-7.34-4.427-6.818-8.718c0.031-0.303,1.556-13.458,1.556-34.904c0-26.29-2.287-65.026-12.415-107.897v-0.01
						c0.95-10.462,1.713-16.894,2.182-17.29c0.699-0.585,4.02-1.566,8.843-2.757
						C1753.841,347.437,1745.238,421.161,1744.862,424.262z"/>
				</g>
			</g>
			<g>
				<circle style="fill:#282B2A;" cx="1743.549" cy="219.464" r="35.111"/>
				<circle style="fill:#282B2A;" cx="1829.976" cy="205.24" r="35.111"/>
				<g>
					<g>
						<path style="fill:#FF916B;" d="M1806.515,216.404v33.536c0,11.548-9.376,20.924-20.924,20.924h-0.01
							c-11.548,0-20.924-9.376-20.924-20.924v-33.536H1806.515z"/>
						<path style="fill:#EF5435;" d="M1806.515,230.688c0,0-8.875,22.176-41.858,16.883v-31.166h34.058L1806.515,230.688z"/>
					</g>
					<path style="fill:#FF916B;" d="M1741.112,152.15c0,0-4.585,82.012,51.654,81.988c53.598-0.023,44.413-81.476,44.413-81.476
						l-47.219-23.92L1741.112,152.15z"/>
					<path style="fill:#282B2A;" d="M1764.657,159.657c0,0,0.043,37.775-20.125,36.711l-3.51-36.711H1764.657z"/>
					<path style="fill:#282B2A;" d="M1805.789,151.167c0,0,0.951,29.633-42.46,14.81l15.356-13.053L1805.789,151.167z"/>
					<path style="fill:#282B2A;" d="M1805.789,151.167c0,0,2.673,16.222,31.988,14.104
						C1837.777,165.271,1852.838,143.062,1805.789,151.167z"/>
					<path style="fill:#FED01E;" d="M1843.512,150.124c-3.007,3.059-6.097,5.179-6.097,5.179
						c-65.266-0.063-92.34,19.358-97.592,23.732c-0.042-0.104-0.073-0.198-0.104-0.292c-1.859-5.169-3.038-10.702-3.425-16.486
						c-2.099-31.584,20.328-58.783,50.075-60.756c7.298-0.491,14.356,0.585,20.882,2.955c2.245,0.814,4.437,1.785,6.546,2.892
						c9.637,5.064,17.729,13.083,23.127,23.012c2.255,4.124,4.041,8.583,5.273,13.292
						C1842.75,145.76,1843.188,147.921,1843.512,150.124z"/>
					<g>
						<g>
							<g>
								<path style="fill:#282B2A;" d="M1822.428,188.386c0,2.971-1.968,5.38-4.395,5.38s-4.395-2.409-4.395-5.38
									c0-2.971,1.968-5.38,4.395-5.38S1822.428,185.414,1822.428,188.386z"/>
							</g>
							<g>
								<path style="fill:#282B2A;" d="M1822.712,176.089c-0.238,0-0.478-0.068-0.691-0.209c-2.361-1.567-5.621-1.567-7.984,0
									c-0.575,0.383-1.351,0.225-1.733-0.349c-0.382-0.575-0.225-1.351,0.35-1.733c1.592-1.058,3.451-1.617,5.375-1.617
									c1.924,0,3.783,0.559,5.375,1.617c0.575,0.382,0.732,1.157,0.35,1.733C1823.514,175.893,1823.117,176.089,1822.712,176.089z
									"/>
							</g>
						</g>
						<g>
							<g>
								<path style="fill:#282B2A;" d="M1789.017,188.386c0,2.971-1.968,5.38-4.395,5.38c-2.427,0-4.395-2.409-4.395-5.38
									c0-2.971,1.968-5.38,4.395-5.38C1787.05,183.005,1789.017,185.414,1789.017,188.386z"/>
							</g>
							<g>
								<path style="fill:#282B2A;" d="M1789.301,176.089c-0.238,0-0.478-0.068-0.691-0.209c-2.361-1.567-5.621-1.567-7.983,0
									c-0.575,0.383-1.351,0.225-1.733-0.349c-0.382-0.575-0.225-1.351,0.349-1.733c1.592-1.058,3.451-1.617,5.375-1.617
									c1.924,0,3.783,0.559,5.375,1.617c0.575,0.382,0.732,1.157,0.35,1.733C1790.103,175.893,1789.706,176.089,1789.301,176.089z
									"/>
							</g>
						</g>
						<path style="fill:#EF5435;" d="M1802.419,192.431c0,0,8.695,13.367,0,16.279
							C1802.419,208.71,1817.584,209.674,1802.419,192.431z"/>
					</g>
					<path style="fill:#FFB50D;" d="M1842.196,143.651l-77.535,16.006c34.716-13.333,42.516-36.898,42.589-55.201
						c2.245,0.814,4.437,1.785,6.546,2.892c9.637,5.064,17.729,13.083,23.127,23.012
						C1839.179,134.484,1840.964,138.942,1842.196,143.651z"/>
					<path style="fill:#D38D00;" d="M1837.408,155.3c-65.268-0.056-92.334,19.364-97.59,23.732
						c-0.665,0.546-0.979,0.861-0.979,0.861c0.288-0.385,0.714-0.702,0.876-1.146c13.124-36.08,95.569-46.92,113.736-36.685
						C1866.739,149.548,1837.408,155.3,1837.408,155.3z"/>
					<path style="fill:#FFFFFF;" d="M1789.357,213.447c0,4.727,3.832,8.559,8.559,8.559s8.559-3.832,8.559-8.559H1789.357z"/>
					<g>
						<path style="fill:#FF916B;" d="M1751.336,183.609c2.028,7.954-0.817,15.547-6.355,16.959
							c-5.538,1.412-11.672-3.892-13.7-11.846c-2.028-7.954,0.817-15.548,6.355-16.96
							C1743.174,170.351,1749.308,175.655,1751.336,183.609z"/>
						<path style="fill:#EF5435;" d="M1743.792,193.193c0,0-1.968-2.307,0.37-6.569c2.338-4.262-1.236-11.468-6.002-9.91
							c-4.055,1.325-6.441,11.842-0.089,16.859S1743.792,193.193,1743.792,193.193z"/>
					</g>
				</g>
			</g>
			<g>
				<path style="fill:#E4E5E2;" d="M1906.885,410.262h-112.251c29.851-55.285,20.882-131.713,20.882-131.713h112.251
					C1927.767,278.549,1936.391,364.081,1906.885,410.262z"/>
				<path style="fill:#C6C6C6;" d="M1906.885,410.262h-112.251c131.984-12.676,133.133-131.713,133.133-131.713
					S1936.391,364.081,1906.885,410.262z"/>
			</g>
			<g>
				<g>
					<path style="fill:#FF916B;" d="M1808.936,358.083c0,0,10.356-17.976,23.739-20.302c34.605-6.014,34.538,25.418,14.311,30.779
						c-20.508,5.435-26.941,11.841-26.941,11.841L1808.936,358.083z"/>
					<path style="fill:#FF916B;" d="M1808.936,358.083c0,0,16.918-34.35,21.948-31.61c5.029,2.74,1.059,19.456,1.059,19.456
						L1808.936,358.083z"/>
				</g>
				<path style="fill:#1A7188;" d="M1720.57,261.747c0,0-26.291,19.453-32.291,51.295c-6,31.842,6.992,103.982,30.356,109.479
					c41.39,9.738,108.242-44.233,108.242-44.233s-3.559-16.279-13.794-28.279l-63.072,17.97
					C1750.011,367.98,1733.314,274.333,1720.57,261.747L1720.57,261.747z"/>
			</g>
			<path style="fill:#FF916B;" d="M1924.671,356.366c-10.661-1.13-18.387-10.689-17.257-21.35
				c1.13-10.661,10.689-18.387,21.35-17.257C1939.425,318.89,1935.332,357.496,1924.671,356.366z"/>
		</g>
	</g>
	<g>
		<ellipse style="fill:#D8D8D8;" cx="350.407" cy="933.314" rx="166.622" ry="14.007"/>
		<g>
			<g>
				<g>
					<g>
						<path style="fill:#ECDFC3;" d="M538.044,275.494c0,0-25.027,77.973-66.707,92.214c-3.905,1.336-8.269,1.629-12.915,1.096
							c-27.105-3.059-64.097-34.037-79.873-49.208c-1.681-1.618-3.132-3.049-4.291-4.26c-2.255-2.339-3.508-3.717-3.508-3.717
							l9.606-28.211l10.9-31.991l2.788-8.186c0,0,37.723,31.981,73.066,64.536l40.218-50.847L538.044,275.494z"/>
					</g>
					<path style="fill:#C4B290;" d="M458.421,368.805c-27.105-3.059-64.097-34.037-79.873-49.208
						c0.407-12.446,0.981-25.058,1.806-36.189c1.953-26.467,5.262-44.541,10.9-31.991c1.462,3.247,3.07,8.561,4.866,16.329
						C415.384,351.295,458.421,368.805,458.421,368.805z"/>
				</g>
				<g>
					<path style="fill:#282B2A;" d="M604.501,193.509c-5.848,0-10.588,4.74-10.588,10.588v11.233
						c0,5.848,4.741,10.588,10.588,10.588c5.847,0,10.588-4.741,10.588-10.588v-11.233
						C615.089,198.249,610.348,193.509,604.501,193.509z"/>
					<polygon style="fill:#282B2A;" points="678.367,212.374 601.971,212.374 601.971,207.052 678.367,207.052 683.588,209.404 
											"/>
					<path style="fill:#282B2A;" d="M520.15,292.192L520.15,292.192c-8.187,0-14.823-6.637-14.823-14.823v-47.322h29.647v47.322
						C534.973,285.555,528.336,292.192,520.15,292.192z"/>
					<path style="fill:#FBA200;" d="M580.325,186.639H505.15c-12.572,0-22.764,10.192-22.764,22.764l0,0
						c0,12.572,10.192,22.764,22.764,22.764h75.175c12.572,0,22.764-10.192,22.764-22.764l0,0
						C603.089,196.831,592.897,186.639,580.325,186.639z"/>
				</g>
				<path style="fill:#FF916B;" d="M533.703,282.319c-13.438,0-24.332-10.078-24.332-22.51c0-12.432,10.894-22.51,24.332-22.51
					C547.141,237.3,547.141,282.319,533.703,282.319z"/>
			</g>
			<g>
				<g>
					<g>
						<path style="fill:#3F3B38;" d="M375.937,930.262h97.773c0.297-26.643-28.096-34.013-57.215-41.7v-14.486l-15.355-10.419
							l-22.872,6.375l0.274,22.872C372.761,905.653,375.937,930.262,375.937,930.262z"/>
						<path style="fill:#2C2825;" d="M375.937,930.262h97.773c0.297-26.643-28.096-34.013-57.215-41.7c0,0-8.111,7.243-37.953,4.341
							C372.761,905.653,375.937,930.262,375.937,930.262z"/>
					</g>
					<path style="fill:#FBA200;" d="M438.662,667.276c-0.804,36.21-11.684,208.058-11.684,208.058h-54.46l-3.132-198.013
						l-38.538-131.713V436.814c5.168,0.699,10.974,1.545,17.008,2.464c26.322,4.02,56.82,9.386,56.82,9.386
						s1.055,11.151,2.621,28.504C412.048,529.686,439.278,638.972,438.662,667.276z"/>
					<g>
						<path style="fill:#3F3B38;" d="M227.676,930.262h97.773c0.297-26.643-28.096-34.013-57.215-41.7v-14.486l-15.355-10.419
							l-22.872,6.375l0.274,22.872C224.5,905.653,227.676,930.262,227.676,930.262z"/>
						<path style="fill:#2C2825;" d="M227.676,930.262h97.773c0.297-26.643-28.096-34.013-57.215-41.7c0,0-8.112,7.243-37.953,4.341
							C224.5,905.653,227.676,930.262,227.676,930.262z"/>
					</g>
					<path style="fill:#FBA200;" d="M337.852,503.334c-1.148,13.27-3.028,29.506-5.419,47.705
						c-15.755,119.758-53.719,324.296-53.719,324.296h-54.46l23.649-372.93l2.401-37.912l7.58-19.88l4.563-11.954
						c5.168,0.699,10.974,1.545,17.008,2.463c19.577,2.986,41.461,6.724,51.39,8.436c3.425,0.595,5.429,0.95,5.429,0.95
						s0.522,5.575,1.389,14.982c0.355,3.895,0.773,8.436,1.232,13.521C339.46,479.267,339.042,489.74,337.852,503.334z"/>
				</g>
				<path style="fill:#B76C00;" d="M406.856,472.397c-0.679,0.606-25.038,21.686-69.004,30.936c-2.276,0.48-4.615,0.93-7.006,1.337
					c-22.97,3.967-50.795,4.563-82.943-2.266l2.401-37.912l7.58-19.88l72.961,13.605l6.818,1.273L406.856,472.397z"/>
				<path style="fill:#B76C00;" d="M347.653,539.867c0,0-11.529,20.647-38.117,6.088
					C309.536,545.955,328.595,546.749,347.653,539.867z"/>
			</g>
			<path style="fill:#FF916B;" d="M134.947,234.062c-2.928,0.445-4.866,5.221-6.058,9.732
				c-30.078-16.828-40.524,12.465-23.437,24.336c17.423,12.105,21.285,20.322,21.285,20.322l18.057-17.189
				C144.794,271.264,140.609,233.202,134.947,234.062z"/>
			<g>
				<g>
					<path style="fill:#ECDFC3;" d="M117.61,275.415c0,0,25.027,77.973,66.707,92.214c3.905,1.336,8.269,1.629,12.915,1.096
						c27.105-3.059,64.097-34.037,79.873-49.208c1.681-1.618,3.132-3.049,4.291-4.26c2.255-2.339,3.508-3.717,3.508-3.717
						l-9.606-28.211l-10.9-31.991l-2.788-8.186c0,0-37.723,31.981-73.066,64.536l-40.219-50.847L117.61,275.415z"/>
				</g>
				<path style="fill:#C4B290;" d="M197.232,368.725c27.105-3.059,64.097-34.037,79.873-49.208
					c-0.407-12.445-0.981-25.058-1.806-36.188c-1.952-26.467-5.262-44.541-10.9-31.991c-1.462,3.247-3.07,8.561-4.865,16.329
					C240.27,351.216,197.232,368.725,197.232,368.725z"/>
			</g>
			<g>
				<g>
					<path style="fill:#ECDFC3;" d="M411.753,472.437c0,0-83.653,27.146-167.306,0c0,0,0-0.114,0.01-0.333
						c0-0.052,0.522-8.656,1.368-22.48c0.167-2.6,0.334-5.378,0.512-8.332c0.355-5.606,0.741-11.819,1.149-18.459
						c0.177-2.714,0.345-5.492,0.533-8.342c1.284-20.318,2.788-43.831,4.333-66.801c3.55-53.04,7.246-103.178,8.583-104.295
						c1.399-1.169,13.458-3.967,26.938-6.797c3.947-0.835,8.008-1.67,11.965-2.474c14.617-2.955,27.742-5.43,27.742-5.43
						s12.498,2.276,26.687,5.085c4.302,0.856,8.76,1.754,13.072,2.662c13.312,2.788,25.236,5.586,26.875,6.954
						c1.357,1.138,5.367,52.601,9.209,106.456c1.577,21.978,3.122,44.364,4.437,63.888c0.188,2.84,0.376,5.628,0.553,8.343
						c0.449,6.609,0.867,12.8,1.243,18.417c0.188,2.945,0.376,5.732,0.543,8.343C411.169,463.364,411.753,472.437,411.753,472.437z"
						/>
					<g>
						<g>
							<path style="fill:#FBA200;" d="M372.016,338.421c-0.079,0-0.158-0.001-0.237-0.003c-4.323-0.128-7.723-3.737-7.595-8.06
								c1.544-51.982-4.503-89.133-4.564-89.503c-0.708-4.265,2.175-8.298,6.441-9.007c4.263-0.713,8.298,2.173,9.008,6.437
								c0.26,1.564,6.362,38.92,4.769,92.538C379.712,335.066,376.233,338.421,372.016,338.421z"/>
						</g>
						<g>
							<path style="fill:#FBA200;" d="M291.976,339.575c-0.078,0-0.157-0.001-0.237-0.003c-4.323-0.128-7.723-3.737-7.595-8.06
								c1.548-52.102-4.502-89.13-4.563-89.499c-0.711-4.266,2.171-8.301,6.437-9.012c4.258-0.706,8.301,2.171,9.011,6.438
								c0.26,1.564,6.362,38.92,4.769,92.537C299.673,336.22,296.193,339.575,291.976,339.575z"/>
						</g>
						<path style="fill:#FBA200;" d="M411.753,474.529c0,0-83.653,27.146-167.306,0c0,0,0-0.115,0.01-0.335
							c0-0.052,0.522-8.656,1.368-22.479c0.167-2.6,0.334-5.377,0.512-8.332c0.355-5.607,0.741-11.82,1.149-18.46
							c0.031-0.511,0.063-1.023,0.104-1.535c0.136-2.224,0.271-4.489,0.428-6.807c0.699-11.12,1.472-23.2,2.276-35.635
							c0.668-10.263,1.357-20.767,2.057-31.166c28.535-14.304,39.811-44.76,39.811-44.76c35.833,12.122,80.103,0,80.103,0
							c7.726,28.389,22.051,41.336,31.156,46.922c1.577,21.978,3.122,44.363,4.437,63.888c0.188,2.84,0.376,5.628,0.553,8.342
							c0.449,6.609,0.867,12.801,1.242,18.418c0.188,2.945,0.376,5.732,0.543,8.343
							C411.169,465.455,411.753,474.529,411.753,474.529z"/>
						<g>
							<circle style="fill:#B76C00;" cx="369.103" cy="320.546" r="6.615"/>
							<circle style="fill:#B76C00;" cx="294.972" cy="320.546" r="6.615"/>
						</g>
					</g>
					<path style="fill:#FFBE57;" d="M283.485,376.484v5.952c0,27.738,22.486,50.223,50.223,50.223h0
						c27.737,0,50.223-22.486,50.223-50.223v-5.952H283.485z"/>
				</g>
				<path style="fill:#FBA200;" d="M354.318,235.406c0,15.056-12.206,27.261-27.262,27.261c-15.056,0-27.251-12.206-27.251-27.261
					c0-0.428,0.01-0.867,0.031-1.284c14.617-2.955,27.742-5.43,27.742-5.43s12.498,2.276,26.687,5.085
					C354.297,234.31,354.318,234.853,354.318,235.406z"/>
			</g>
			<g>
				<g>
					<path style="fill:#FF916B;" d="M348.465,200.526v33.536c0,11.548-9.376,20.924-20.924,20.924h-0.01
						c-11.548,0-20.924-9.376-20.924-20.924v-33.536H348.465z"/>
					<path style="fill:#EF5435;" d="M348.465,214.809c0,0-8.875,22.176-41.858,16.883v-31.166h34.058L348.465,214.809z"/>
				</g>
				<g>
					<path style="fill:#FF916B;" d="M283.062,136.272c0,0-4.585,82.012,51.654,81.988c53.598-0.023,44.413-81.477,44.413-81.477
						l-47.219-23.92L283.062,136.272z"/>
					<path style="fill:#282B2A;" d="M320.635,142.367c0,0,1.823,10.765,11.868,10.235c10.045-0.529,14.07-10.941,23.087-6.706
						s26.874,10.521,23.769-6.475c-3.105-16.995-48.391-2.172-48.391-2.172L320.635,142.367z"/>
					<path style="fill:#282B2A;" d="M306.607,143.779c0,0,0.043,37.775-20.125,36.71l-3.51-36.71H306.607z"/>
					<path style="fill:#FED01E;" d="M385.462,134.246c-3.007,3.059-6.098,5.179-6.098,5.179
						c-65.266-0.063-92.34,19.357-97.592,23.732c-0.042-0.105-0.073-0.198-0.104-0.292c-1.859-5.169-3.038-10.702-3.425-16.486
						c-2.099-31.584,20.328-58.783,50.075-60.756c7.298-0.491,14.356,0.585,20.882,2.955c2.245,0.814,4.437,1.785,6.546,2.892
						c9.637,5.064,17.729,13.083,23.127,23.012c2.255,4.124,4.041,8.583,5.273,13.292
						C384.7,129.882,385.139,132.043,385.462,134.246z"/>
					<path style="fill:#FFB50D;" d="M384.147,127.773l-77.535,16.006c34.716-13.333,42.516-36.898,42.589-55.201
						c2.245,0.814,4.437,1.785,6.546,2.892c9.637,5.064,17.729,13.083,23.127,23.012
						C381.129,118.605,382.915,123.064,384.147,127.773z"/>
					<path style="fill:#D38D00;" d="M379.358,139.422c-65.268-0.056-92.334,19.364-97.59,23.732
						c-0.665,0.546-0.979,0.861-0.979,0.861c0.288-0.385,0.714-0.702,0.876-1.146c13.124-36.08,95.569-46.92,113.736-36.685
						C408.69,133.67,379.358,139.422,379.358,139.422z"/>
					<g>
						<path style="fill:#FF916B;" d="M295.527,169.619c2.028,7.954-0.817,15.547-6.356,16.96c-5.538,1.412-11.672-3.892-13.7-11.846
							c-2.028-7.954,0.817-15.547,6.356-16.96C287.365,156.361,293.499,161.665,295.527,169.619z"/>
						<path style="fill:#EF5435;" d="M287.983,179.203c0,0-1.968-2.307,0.37-6.569c2.338-4.262-1.236-11.468-6.002-9.91
							c-4.055,1.325-6.441,11.842-0.089,16.859C288.615,184.601,287.983,179.203,287.983,179.203z"/>
					</g>
					<g>
						<g>
							<g>
								<g>
									<path style="fill:#282B2A;" d="M364.379,172.508c0,2.971-1.968,5.38-4.395,5.38s-4.395-2.409-4.395-5.38
										s1.968-5.38,4.395-5.38S364.379,169.536,364.379,172.508z"/>
								</g>
								<g>
									<path style="fill:#282B2A;" d="M364.663,160.211c-0.238,0-0.478-0.068-0.691-0.209c-2.361-1.567-5.621-1.568-7.984,0
										c-0.575,0.382-1.351,0.225-1.733-0.349c-0.382-0.575-0.225-1.351,0.35-1.733c1.592-1.058,3.451-1.617,5.375-1.617
										c1.924,0,3.783,0.559,5.375,1.617c0.575,0.382,0.732,1.157,0.35,1.733C365.464,160.015,365.067,160.211,364.663,160.211z"
										/>
								</g>
							</g>
							<g>
								<g>
									<path style="fill:#282B2A;" d="M330.968,172.508c0,2.971-1.967,5.38-4.395,5.38c-2.427,0-4.395-2.409-4.395-5.38
										s1.968-5.38,4.395-5.38C329,167.127,330.968,169.536,330.968,172.508z"/>
								</g>
								<g>
									<path style="fill:#282B2A;" d="M331.251,160.211c-0.238,0-0.478-0.068-0.69-0.209c-2.361-1.567-5.621-1.568-7.984,0
										c-0.575,0.382-1.351,0.225-1.733-0.349c-0.382-0.575-0.225-1.351,0.349-1.733c1.592-1.058,3.451-1.617,5.375-1.617
										c1.924,0,3.783,0.559,5.375,1.617c0.575,0.382,0.732,1.157,0.35,1.733C332.053,160.015,331.656,160.211,331.251,160.211z"
										/>
								</g>
							</g>
							<path style="fill:#EF5435;" d="M344.37,176.553c0,0,8.695,13.367,0,16.279C344.37,192.832,359.535,193.796,344.37,176.553z"
								/>
						</g>
						<g>
							<path style="fill:#282B2A;" d="M353.317,198.7c0,2.707-0.842,5.215-2.281,7.269c-2.3,3.294-6.115,5.443-10.431,5.443
								c-4.316,0-8.141-2.149-10.431-5.443c-1.439-2.054-2.291-4.562-2.291-7.269c0-7.024,5.698-2.31,12.722-2.31
								C347.629,196.39,353.317,191.677,353.317,198.7z"/>
							<path style="fill:#FF3333;" d="M351.036,205.97c-2.3,3.294-6.115,5.443-10.431,5.443c-4.316,0-8.141-2.149-10.431-5.443
								c2.291-3.294,6.115-5.452,10.431-5.452C344.922,200.518,348.736,202.676,351.036,205.97z"/>
						</g>
					</g>
				</g>
			</g>
		</g>
	</g>
	<g>
		<ellipse style="fill:#D8D8D8;" cx="1129.214" cy="942.118" rx="321.881" ry="14.007"/>
		<g>
			<g>
				<g>
					<g>
						<path style="fill:#3F3B38;" d="M1000.868,939.065h97.773c0.297-26.643-28.096-34.013-57.215-41.7v-14.486l-15.355-10.419
							l-22.872,6.375l0.274,22.872C997.692,914.456,1000.868,939.065,1000.868,939.065z"/>
						<path style="fill:#2C2825;" d="M1000.868,939.065h97.773c0.297-26.643-28.096-34.013-57.215-41.7
							c0,0-8.111,7.243-37.953,4.341C997.692,914.456,1000.868,939.065,1000.868,939.065z"/>
					</g>
					<path style="fill:#1A7188;" d="M1063.593,676.08c-0.804,36.21-11.683,208.058-11.683,208.058h-54.46l-3.132-198.013
						l-38.538-131.713V445.617c5.168,0.699,10.974,1.545,17.008,2.464c26.322,4.02,56.82,9.386,56.82,9.386
						s1.055,11.151,2.621,28.504C1036.978,538.489,1064.208,647.775,1063.593,676.08z"/>
					<g>
						<path style="fill:#3F3B38;" d="M852.606,939.065h97.773c0.297-26.643-28.096-34.013-57.215-41.7v-14.486l-15.355-10.419
							l-22.872,6.375l0.274,22.872C849.43,914.456,852.606,939.065,852.606,939.065z"/>
						<path style="fill:#2C2825;" d="M852.606,939.065h97.773c0.297-26.643-28.096-34.013-57.215-41.7c0,0-8.112,7.243-37.953,4.341
							C849.43,914.456,852.606,939.065,852.606,939.065z"/>
					</g>
					<path style="fill:#1A7188;" d="M962.782,512.137c-1.148,13.27-3.028,29.506-5.419,47.705
						c-15.755,119.758-53.719,324.296-53.719,324.296h-54.46l23.649-372.93l2.401-37.912l7.58-19.88l4.563-11.954
						c5.168,0.699,10.974,1.545,17.008,2.463c19.577,2.986,41.461,6.724,51.391,8.436c3.425,0.596,5.429,0.95,5.429,0.95
						s0.522,5.575,1.389,14.982c0.355,3.895,0.773,8.436,1.232,13.521C964.39,488.071,963.973,498.543,962.782,512.137z"/>
				</g>
				<path style="fill:#044D5E;" d="M1031.787,481.201c-0.679,0.606-25.038,21.686-69.004,30.936c-2.276,0.48-4.615,0.93-7.006,1.337
					c-22.97,3.967-50.795,4.563-82.943-2.266l2.401-37.912l7.58-19.88l72.961,13.605l6.818,1.273L1031.787,481.201z"/>
				<path style="fill:#044D5E;" d="M978.168,538.167c0,0-12.607,34.669-49.978,18.911
					C928.19,557.078,958.357,559.329,978.168,538.167z"/>
			</g>
			<g>
				<path style="fill:#ECDFC3;" d="M1037.826,477.376c0,0-83.653,27.147-167.306,0c0,0,0-0.115,0.01-0.334
					c0-0.052,0.522-8.656,1.368-22.479c0.167-2.6,0.334-5.377,0.512-8.332c0.355-5.607,0.741-11.819,1.149-18.46
					c0.177-2.715,0.344-5.492,0.532-8.342c1.284-20.318,2.788-43.832,4.333-66.802c3.55-53.04,7.246-103.177,8.583-104.294
					c1.399-1.169,13.458-3.968,26.938-6.797c18.512-3.905,39.707-7.904,39.707-7.904s21.227,3.863,39.759,7.747
					c13.312,2.788,25.236,5.586,26.875,6.954c1.357,1.138,5.367,52.602,9.209,106.456c1.577,21.978,3.122,44.363,4.437,63.888
					c0.188,2.84,0.376,5.628,0.553,8.342c0.449,6.609,0.867,12.801,1.243,18.418c0.188,2.945,0.376,5.732,0.543,8.342
					C1037.242,468.302,1037.826,477.376,1037.826,477.376z"/>
				<g>
					<g>
						<path style="fill:#1A7188;" d="M998.085,343.358c-0.079,0-0.158-0.001-0.237-0.003c-4.323-0.128-7.723-3.737-7.595-8.06
							c1.544-51.982-4.503-89.133-4.564-89.503c-0.708-4.265,2.175-8.298,6.441-9.007c4.263-0.713,8.298,2.173,9.008,6.437
							c0.26,1.564,6.362,38.92,4.769,92.538C1005.782,340.003,1002.302,343.358,998.085,343.358z"/>
					</g>
					<g>
						<path style="fill:#1A7188;" d="M918.045,344.512c-0.078,0-0.157-0.001-0.237-0.003c-4.323-0.128-7.723-3.737-7.595-8.06
							c1.548-52.102-4.502-89.131-4.563-89.499c-0.711-4.266,2.171-8.301,6.437-9.011c4.258-0.706,8.301,2.171,9.011,6.438
							c0.26,1.564,6.362,38.92,4.769,92.537C925.742,341.157,922.262,344.512,918.045,344.512z"/>
					</g>
					<path style="fill:#1A7188;" d="M1037.823,479.466c0,0-83.653,27.146-167.306,0c0,0,0-0.115,0.01-0.335
						c0-0.052,0.522-8.656,1.368-22.479c0.167-2.6,0.334-5.377,0.512-8.332c0.355-5.607,0.741-11.819,1.148-18.46
						c0.031-0.511,0.063-1.023,0.104-1.535c0.136-2.224,0.272-4.489,0.428-6.807c0.7-11.12,1.472-23.2,2.276-35.635
						c0.668-10.263,1.357-20.767,2.057-31.166c28.535-14.304,39.811-44.76,39.811-44.76c35.833,12.122,80.103,0,80.103,0
						c7.726,28.389,22.051,41.336,31.156,46.922c1.577,21.978,3.122,44.363,4.437,63.888c0.188,2.84,0.376,5.628,0.553,8.342
						c0.449,6.609,0.866,12.801,1.242,18.418c0.188,2.945,0.376,5.732,0.543,8.343
						C1037.238,470.392,1037.823,479.466,1037.823,479.466z"/>
					<g>
						<circle style="fill:#044D5E;" cx="995.172" cy="325.483" r="6.615"/>
						<circle style="fill:#044D5E;" cx="921.041" cy="325.483" r="6.615"/>
					</g>
				</g>
				<path style="fill:#2D99B2;" d="M925.226,381.421v4.095c0,19.082,15.469,34.552,34.551,34.552l0,0
					c19.082,0,34.551-15.469,34.551-34.552v-4.095H925.226z"/>
			</g>
			<g>
				<path style="fill:#585355;" d="M1360.662,771.587L1360.662,771.587c-13.613,1.663-22.673,14.9-19.295,28.192l22.393,88.103
					c1.377,5.419,6.567,8.971,12.117,8.293c5.55-0.678,9.733-5.375,9.766-10.966l0.532-90.903
					C1386.255,780.592,1374.275,769.924,1360.662,771.587z"/>
				<g>
					<path style="fill:#666666;" d="M1183.798,925.097c-0.14,0-0.275-0.002-0.408-0.002c-6.032-0.036-10.604-4.111-23.312-29.273
						c-6.724-13.315-15.292-31.828-25.464-55.026c-17.267-39.372-33.446-79.252-33.607-79.651l8.766-3.552l0.891-3.119l3.991,1.14
						l1.25-0.505c0.133,0.327,0.263,0.648,0.396,0.976l182.807,52.23l-7.502,9.425c-0.21,0.262-21.182,26.576-44.183,52.529
						C1199.961,923.824,1189.278,925.097,1183.798,925.097z M1183.159,909.042L1183.159,909.042L1183.159,909.042z
						 M1124.054,775.018c24.888,60.205,51.816,120.098,61.284,133.093c4.785-2.625,18.317-12.548,51.391-50.012
						c13.874-15.716,26.866-31.384,34.699-40.974L1124.054,775.018z"/>
				</g>
				<g>
					<path style="fill:#585355;" d="M1237.392,739.269H1106.72c-2.552,0-4.953-1.212-6.468-3.267L901.283,466.227
						c-1.8-2.441-2.073-5.687-0.706-8.393c1.366-2.708,4.141-4.414,7.174-4.414h130.673c2.552,0,4.953,1.212,6.468,3.267
						l198.969,269.775c1.8,2.441,2.073,5.687,0.706,8.393C1243.2,737.563,1240.425,739.269,1237.392,739.269z M1110.779,723.195
						h110.699l-187.113-253.701h-110.7L1110.779,723.195z"/>
				</g>
				<path style="fill:#777576;" d="M1061.184,680.7L1061.184,680.7c0,81.924,66.412,148.335,148.335,148.335h97.804
					c81.923,0,148.335-66.411,148.335-148.335l0,0H1061.184z"/>
				<path style="fill:#666666;" d="M1455.666,680.703c0,81.916-66.419,148.333-148.349,148.333h-97.796
					c-35.894,0-68.782-12.746-94.436-33.932c10.513,2.362,21.475,3.617,32.711,3.617h97.796
					c71.546,0,131.246-50.634,145.231-118.018H1455.666z"/>
				
					<ellipse transform="matrix(0.9239 -0.3827 0.3827 0.9239 -234.4261 592.0066)" style="fill:#3D3A3B;" cx="1370.896" cy="885.273" rx="53.792" ry="53.792"/>
				
					<ellipse transform="matrix(0.1602 -0.9871 0.9871 0.1602 277.4604 2096.6616)" style="fill:#585355;" cx="1370.896" cy="885.273" rx="25.266" ry="25.266"/>
				<path style="fill:#666666;" d="M1330.052,778.375L1330.052,778.375c-12.832,4.839-18.5,19.846-12.07,31.959l42.62,80.294
					c2.621,4.939,8.505,7.161,13.737,5.188c5.232-1.973,8.183-7.527,6.891-12.966l-21.011-88.443
					C1357.049,781.064,1342.884,773.536,1330.052,778.375z"/>
				<rect x="1101.007" y="626.908" style="fill:#89532F;" width="102.807" height="53.792"/>
				<rect x="1203.814" y="626.908" style="fill:#9C673E;" width="102.807" height="53.792"/>
				<rect x="1306.621" y="626.908" style="fill:#89532F;" width="102.807" height="53.792"/>
				<rect x="1255.218" y="573.116" style="fill:#89532F;" width="102.807" height="53.792"/>
				<rect x="1214.297" y="519.324" style="fill:#9C673E;" width="102.807" height="53.792"/>
				<rect x="1152.411" y="573.116" style="fill:#9C673E;" width="102.807" height="53.792"/>
			</g>
			<g>
				<g>
					<path style="fill:#FF916B;" d="M1049.263,463.284c4.256-6.558,7.27-20.629,7.27-20.629l-14.259-19.406
						c0,0-32.377,19.026-35.753,29.385c-2.747,8.432,11.625,3.249,11.625,3.249s-15.945,11.977-5.414,17.922
						C1024.125,480.238,1039.681,478.05,1049.263,463.284z"/>
					<path style="fill:#ECDFC3;" d="M1020.286,248.333c0,0,57.48,43.339,57.789,110.781c0.191,41.631-20.265,89.189-20.265,89.189
						l-31.863-15.26l3.705-76.79l-4.719-45.413l-13.883-64.142L1020.286,248.333z"/>
				</g>
				<path style="fill:#C4B290;" d="M1029.651,356.252c0,0,11.139-20.993-8.19-94.371L1029.651,356.252z"/>
			</g>
			<g>
				<g>
					<path style="fill:#FF916B;" d="M941.368,479.756c-6.241-4.708-13.883-16.902-13.883-16.902l6.768-23.111
						c0,0,36.93,6.814,43.643,15.396c5.464,6.985-9.814,7.027-9.814,7.027s19.078,5.806,11.213,14.993
						C970.787,487.097,955.42,490.358,941.368,479.756z"/>
					<path style="fill:#ECDFC3;" d="M886.943,248.02c0,0-52.491,64.655-48.439,131.975c2.103,34.943,92.441,89.586,92.441,89.586
						l18.157-26.098l-53.822-76.79l13.072-45.413l-6.999-74.582L886.943,248.02z"/>
				</g>
				<polygon style="fill:#C4B290;" points="895.279,366.693 905.106,286.696 908.352,321.28 				"/>
			</g>
			<g>
				<g>
					<path style="fill:#FF916B;" d="M975.463,203.952v33.536c0,11.548-9.376,20.924-20.924,20.924h-0.01
						c-11.548,0-20.924-9.376-20.924-20.924v-33.536H975.463z"/>
					<path style="fill:#EF5435;" d="M975.463,218.235c0,0-8.875,22.176-41.858,16.883v-31.166h34.058L975.463,218.235z"/>
				</g>
				<path style="fill:#FF916B;" d="M910.06,139.698c0,0-4.585,82.012,51.654,81.988c53.598-0.023,44.414-81.477,44.414-81.477
					l-47.219-23.92L910.06,139.698z"/>
				<path style="fill:#282B2A;" d="M947.633,145.793c0,0,1.823,10.765,11.868,10.235s14.07-10.941,23.087-6.706
					c9.017,4.235,26.874,10.521,23.769-6.475c-3.105-16.995-48.391-2.172-48.391-2.172L947.633,145.793z"/>
				<path style="fill:#282B2A;" d="M933.605,147.205c0,0,0.043,37.775-20.125,36.71l-3.51-36.71H933.605z"/>
				<path style="fill:#FED01E;" d="M1012.46,137.672c-3.007,3.059-6.097,5.179-6.097,5.179
					c-65.266-0.063-92.34,19.358-97.592,23.732c-0.042-0.104-0.073-0.198-0.104-0.292c-1.859-5.168-3.038-10.702-3.425-16.486
					c-2.099-31.584,20.328-58.783,50.075-60.756c7.298-0.491,14.356,0.585,20.882,2.955c2.245,0.814,4.437,1.785,6.546,2.892
					c9.637,5.064,17.729,13.083,23.127,23.012c2.255,4.124,4.041,8.583,5.273,13.292
					C1011.698,133.308,1012.137,135.469,1012.46,137.672z"/>
				<g>
					<g>
						<g>
							<path style="fill:#282B2A;" d="M991.377,175.934c0,2.971-1.968,5.38-4.395,5.38c-2.427,0-4.395-2.409-4.395-5.38
								s1.967-5.38,4.395-5.38C989.409,170.553,991.377,172.962,991.377,175.934z"/>
						</g>
						<g>
							<path style="fill:#282B2A;" d="M991.661,163.637c-0.238,0-0.478-0.068-0.691-0.209c-2.361-1.567-5.621-1.567-7.984,0
								c-0.575,0.383-1.351,0.225-1.733-0.349c-0.382-0.575-0.225-1.351,0.35-1.733c1.592-1.058,3.451-1.617,5.375-1.617
								c1.924,0,3.783,0.559,5.375,1.617c0.575,0.382,0.732,1.157,0.349,1.733C992.462,163.441,992.065,163.637,991.661,163.637z"/>
						</g>
					</g>
					<g>
						<g>
							<path style="fill:#282B2A;" d="M957.966,175.934c0,2.971-1.967,5.38-4.395,5.38s-4.395-2.409-4.395-5.38
								s1.968-5.38,4.395-5.38S957.966,172.962,957.966,175.934z"/>
						</g>
						<g>
							<path style="fill:#282B2A;" d="M958.249,163.637c-0.238,0-0.478-0.068-0.69-0.209c-2.361-1.567-5.621-1.567-7.984,0
								c-0.575,0.383-1.351,0.225-1.733-0.349c-0.382-0.575-0.225-1.351,0.35-1.733c1.592-1.058,3.451-1.617,5.375-1.617
								c1.924,0,3.783,0.559,5.375,1.617c0.575,0.382,0.732,1.157,0.35,1.733C959.051,163.441,958.654,163.637,958.249,163.637z"/>
						</g>
					</g>
					<path style="fill:#EF5435;" d="M971.368,179.979c0,0,8.695,13.367,0,16.279C971.368,196.258,986.533,197.223,971.368,179.979z"
						/>
					<path style="fill:#282B2A;" d="M971.784,209.044c-6.902,2.428-11.029-2.647-11.077-2.708c-0.536-0.678-0.421-1.663,0.258-2.199
						c0.677-0.535,1.656-0.422,2.193,0.25c0.399,0.489,4.059,4.605,10.607,0.124c0.717-0.479,1.689-0.304,2.177,0.409
						c0.488,0.714,0.305,1.689-0.409,2.177C974.209,208.003,972.956,208.632,971.784,209.044z"/>
				</g>
				<path style="fill:#FFB50D;" d="M1011.145,131.199l-77.535,16.005c34.716-13.333,42.516-36.898,42.589-55.201
					c2.245,0.814,4.437,1.785,6.546,2.892c9.637,5.064,17.729,13.083,23.127,23.012
					C1008.127,122.032,1009.913,126.49,1011.145,131.199z"/>
				<path style="fill:#D38D00;" d="M1012.458,137.671c-3.009,3.056-6.102,5.177-6.102,5.177
					c-65.268-0.056-92.334,19.364-97.59,23.732c-0.665,0.546-0.979,0.861-0.979,0.861c0.288-0.385,0.587-0.772,0.876-1.146
					c29.709-38.222,77.024-51.81,97.207-48.391c1.449,0.238,2.748,0.571,3.895,0.986
					C1023.027,123.669,1017.859,132.185,1012.458,137.671z"/>
				<g>
					<path style="fill:#FF916B;" d="M922.525,173.045c2.028,7.954-0.817,15.548-6.355,16.96c-5.538,1.412-11.672-3.892-13.7-11.846
						c-2.028-7.954,0.817-15.547,6.355-16.96C914.363,159.787,920.497,165.091,922.525,173.045z"/>
					<path style="fill:#EF5435;" d="M914.981,182.629c0,0-1.968-2.307,0.37-6.569c2.338-4.262-1.236-11.468-6.002-9.91
						c-4.055,1.325-6.441,11.842-0.089,16.859C915.613,188.027,914.981,182.629,914.981,182.629z"/>
				</g>
			</g>
		</g>
	</g>
	<g>
		<ellipse style="fill:#D8D8D8;" cx="346.552" cy="1919.167" rx="166.622" ry="14.007"/>
		<g>
			<g>
				<path style="fill:#FF916B;" d="M168.339,1258.617c0,0-0.882-21-11.823-29.293c-10.941-8.294-20.117,31.588-20.117,31.588
					l29.646,4.765L168.339,1258.617z"/>
				<g>
					<g>
						<path style="fill:#ECDFC3;" d="M138.363,1270.327c0,0,25.027,77.973,66.707,92.214c3.905,1.336,8.269,1.629,12.915,1.096
							c27.105-3.059,64.097-34.037,79.873-49.208c1.681-1.618,3.132-3.049,4.291-4.26c2.255-2.339,3.508-3.717,3.508-3.717
							l-9.606-28.211l-10.9-31.991l-2.788-8.186c0,0-37.723,31.981-73.066,64.536l-40.219-50.847L138.363,1270.327z"/>
					</g>
					<path style="fill:#C4B290;" d="M217.986,1363.637c27.105-3.059,64.097-34.037,79.873-49.208
						c-0.407-12.446-0.981-25.058-1.806-36.188c-1.952-26.467-5.262-44.541-10.9-31.991c-1.462,3.247-3.07,8.561-4.865,16.329
						C261.024,1346.128,217.986,1363.637,217.986,1363.637z"/>
				</g>
				<g>
					<g>
						<path style="fill:#483F40;" d="M216.467,1148.283c0,11.081-9.016,20.087-20.096,20.087h-41.45l-0.017,33.875l-0.035,84.766
							c-1.596,0.747-3.393,1.163-5.275,1.163c-1.892,0-3.688-0.417-5.293-1.172l0.044-84.784l0.017-40.791h52.01
							c7.254,0,13.155-5.892,13.155-13.146c0-5.562-3.471-10.335-8.365-12.252c-1.484-0.581-3.098-0.902-4.79-0.902h-46.726v-6.942
							h46.734c1.874,0,3.688,0.26,5.415,0.746C210.245,1131.302,216.467,1139.077,216.467,1148.283z"/>
						<path style="fill:#FF3333;" d="M192.408,1120.308l-69.356-0.007c-5.395-0.001-9.77,5.076-9.77,11.339l0,0
							c-0.001,6.263,4.372,11.34,9.768,11.341l69.356,0.007c5.395,0,9.77-5.076,9.77-11.339l0,0
							C202.177,1125.386,197.803,1120.308,192.408,1120.308z"/>
					</g>
					<path style="fill:#FBA200;" d="M159.998,1205.259v72.511c0,4.178-2.46,7.786-6.018,9.438c-1.328,0.621-2.821,0.967-4.387,0.967
						c-1.573,0-3.067-0.346-4.402-0.974c-3.55-1.652-6.004-5.253-6.004-9.431v-72.511c0-4.185,2.475-7.8,6.04-9.445
						c1.328-0.621,2.807-0.96,4.366-0.96c1.58,0,3.074,0.353,4.416,0.981c1.097,0.52,2.093,1.219,2.937,2.071
						C158.836,1199.782,159.998,1202.387,159.998,1205.259z"/>
				</g>
				<path style="fill:#FF916B;" d="M138.528,1277.152c13.438,0,24.332-10.078,24.332-22.51c0-12.432-10.894-22.51-24.332-22.51
					C125.09,1232.132,125.09,1277.152,138.528,1277.152z"/>
			</g>
			<g>
				<path style="fill:#282B2A;" d="M328.629,1167.169c-2.382-5.067-8.25-7.55-13.509-5.749c-5.196,1.78-8.307,7.231-7.186,12.647
					c-3.666-6.957-11.888-8.426-16.096-5.174c-3.272,2.529-4.419,8.147-2.012,13.221c-5.978-1.494-12.166,1.471-14.659,6.898
					c-2.332,5.076-0.941,11.238,3.449,14.946c-4.625,2.938-7.692,7.559-7.186,11.784c0.745,6.224,9.324,12.29,19.832,9.773
					c-0.303,5.662,3.745,10.645,9.198,11.497c5.204,0.814,10.375-2.34,12.072-7.473c4.831,5.753,12.538,7.187,17.82,4.024
					c5.411-3.24,5.987-9.931,6.036-10.635c3.952,2.212,8.706,2.247,12.359,0c4.643-2.856,6.789-8.955,4.886-14.659
					c5.883-6.886,6.089-12.901,6.036-14.946C359.363,1181.516,346.945,1169.691,328.629,1167.169z"/>
				<path style="fill:#282B2A;" d="M377.599,1167.169c2.382-5.067,8.25-7.55,13.509-5.749c5.196,1.78,8.307,7.231,7.186,12.647
					c3.666-6.957,11.888-8.426,16.096-5.174c3.272,2.529,4.419,8.147,2.012,13.221c5.978-1.494,12.166,1.471,14.659,6.898
					c2.332,5.076,0.941,11.238-3.449,14.946c4.625,2.938,7.692,7.559,7.186,11.784c-0.746,6.224-9.324,12.29-19.832,9.773
					c0.303,5.662-3.745,10.645-9.198,11.497c-5.204,0.814-10.375-2.34-12.072-7.473c-4.831,5.753-12.538,7.187-17.82,4.024
					c-5.411-3.24-5.986-9.931-6.036-10.635c-3.952,2.212-8.706,2.247-12.359,0c-4.643-2.856-6.789-8.955-4.886-14.659
					c-5.883-6.886-6.089-12.901-6.036-14.946C346.865,1181.516,359.283,1169.691,377.599,1167.169z"/>
			</g>
			<g>
				<g>
					<g>
						<path style="fill:#3F3B38;" d="M301.992,1918.164h-97.773c-0.297-26.643,28.096-34.013,57.215-41.7l1.044-14.486
							l15.355-10.419l22.872,6.375l-1.318,22.872C305.168,1893.555,301.992,1918.164,301.992,1918.164z"/>
						<path style="fill:#2C2825;" d="M301.992,1918.164h-97.773c-0.297-26.643,28.096-34.013,57.215-41.7
							c0,0,8.111,7.243,37.953,4.341C305.168,1893.555,301.992,1918.164,301.992,1918.164z"/>
					</g>
					<path style="fill:#9A663C;" d="M349.008,1414.276v108.471l-0.355,2.893l-41.576,338.935h-53.426l12.602-366.99l0.658-19.2
						l1.023-29.851c0,0,20.955-10.546,38.245-20.204c12.676-7.079,23.377-13.687,22.396-15.327c-0.7-1.18,7.852-0.408,20.078,1.222
						C348.768,1414.245,348.883,1414.256,349.008,1414.276z"/>
				</g>
				<g>
					<g>
						<path style="fill:#3F3B38;" d="M395.319,1918.164h97.772c0.297-26.643-28.096-34.013-57.215-41.7l-1.044-14.486
							l-15.355-10.419l-22.872,6.375l1.318,22.872C392.142,1893.555,395.319,1918.164,395.319,1918.164z"/>
						<path style="fill:#2C2825;" d="M395.319,1918.164h97.772c0.297-26.643-28.096-34.013-57.215-41.7
							c0,0-8.112,7.243-37.953,4.341C392.142,1893.555,395.319,1918.164,395.319,1918.164z"/>
					</g>
					<path style="fill:#9A663C;" d="M348.302,1414.272v108.472l41.931,341.826h53.426l-13.26-386.19l-1.023-29.851
						c0,0-62.959-31.667-60.641-35.531C369.445,1411.808,360.716,1412.602,348.302,1414.272z"/>
				</g>
				<path style="fill:#723F1D;" d="M432.808,1467.661c0,0-0.866,1.034-2.683,2.746c-7.695,7.278-32.492,26.781-81.116,31.866
					c-0.23,0.031-0.47,0.052-0.71,0.073c-22.197,2.254-49.344,1.503-82.045-4.762l0.658-19.2l1.023-29.851
					c0,0,20.955-10.546,38.245-20.204l42.119,13.083l0.71,0.219l80.991,25.152L432.808,1467.661z"/>
				<path style="fill:#723F1D;" d="M368.454,1517.19c0,0-17.647,16.235-37.058,8.47
					C331.396,1525.66,352.042,1524.601,368.454,1517.19z"/>
			</g>
			<g>
				<g>
					<path style="fill:#ECDFC3;" d="M432.396,1467.337c-83.653,27.146-167.306,0-167.306,0s0.585-9.073,1.556-23.596
						c0.167-2.61,0.355-5.398,0.543-8.342c0.376-5.617,0.793-11.809,1.243-18.418c0.177-2.715,0.365-5.502,0.553-8.343
						c1.316-19.525,2.861-41.91,4.437-63.888c3.842-53.854,7.852-105.318,9.209-106.456c1.639-1.368,13.563-4.166,26.875-6.954
						c4.312-0.909,8.771-1.806,13.072-2.662c14.189-2.808,26.687-5.085,26.687-5.085s13.124,2.475,27.742,5.43
						c3.957,0.804,8.019,1.639,11.965,2.474c13.479,2.829,25.539,5.628,26.938,6.797c0.731,0.616,2.172,15.964,3.915,38.454
						c0.887,11.485,1.848,24.828,2.84,39.028c0.605,8.697,1.221,17.708,1.827,26.813c1.545,22.97,3.049,46.483,4.333,66.801
						c0.188,2.85,0.355,5.627,0.533,8.342c0.407,6.64,0.793,12.853,1.149,18.46c0.177,2.954,0.344,5.732,0.512,8.332
						c0.846,13.824,1.368,22.427,1.368,22.48C432.396,1467.223,432.396,1467.337,432.396,1467.337z"/>
					<g>
						<g>
							<path style="fill:#9A663C;" d="M304.83,1333.322c0.079,0,0.158-0.001,0.237-0.003c4.323-0.128,7.723-3.737,7.595-8.06
								c-1.544-51.981,4.503-89.133,4.564-89.503c0.708-4.265-2.175-8.298-6.441-9.007c-4.263-0.713-8.298,2.173-9.008,6.437
								c-0.261,1.564-6.362,38.92-4.769,92.538C297.133,1329.967,300.613,1333.322,304.83,1333.322z"/>
						</g>
						<g>
							<path style="fill:#9A663C;" d="M384.87,1334.476c0.078,0,0.157-0.001,0.237-0.003c4.323-0.129,7.723-3.737,7.595-8.06
								c-1.548-52.102,4.502-89.13,4.563-89.499c0.711-4.266-2.171-8.301-6.437-9.011c-4.258-0.706-8.301,2.171-9.011,6.438
								c-0.26,1.564-6.362,38.92-4.769,92.537C377.173,1331.122,380.653,1334.476,384.87,1334.476z"/>
						</g>
						<path style="fill:#9A663C;" d="M265.092,1469.43c0,0,83.653,27.146,167.306,0c0,0,0-0.115-0.01-0.334
							c0-0.052-0.522-8.656-1.368-22.479c-0.167-2.6-0.334-5.377-0.512-8.332c-0.355-5.607-0.741-11.819-1.149-18.46
							c-0.031-0.511-0.063-1.023-0.104-1.535c-0.136-2.224-0.271-4.489-0.428-6.807c-0.7-11.12-1.472-23.2-2.276-35.635
							c-0.668-10.263-1.357-20.767-2.057-31.167c-28.535-14.304-39.811-44.76-39.811-44.76c-35.833,12.122-80.103,0-80.103,0
							c-7.726,28.389-22.051,41.336-31.156,46.922c-1.577,21.978-3.122,44.363-4.437,63.888c-0.188,2.84-0.376,5.628-0.553,8.342
							c-0.449,6.609-0.867,12.801-1.242,18.418c-0.188,2.945-0.376,5.732-0.543,8.343
							C265.677,1460.357,265.092,1469.43,265.092,1469.43z"/>
						<g>
							<circle style="fill:#723F1D;" cx="307.743" cy="1315.447" r="6.615"/>
							<circle style="fill:#723F1D;" cx="381.874" cy="1315.447" r="6.615"/>
						</g>
					</g>
					<path style="fill:#B7805A;" d="M396.775,1412.433v5.952c0,27.738-22.486,50.223-50.223,50.223h0
						c-27.737,0-50.223-22.486-50.223-50.223v-5.952H396.775z"/>
				</g>
				<path style="fill:#9A663C;" d="M322.528,1230.308c0,15.056,12.206,27.261,27.262,27.261c15.056,0,27.251-12.205,27.251-27.261
					c0-0.428-0.01-0.867-0.031-1.284c-14.617-2.955-27.742-5.43-27.742-5.43s-12.498,2.276-26.687,5.085
					C322.549,1229.211,322.528,1229.754,322.528,1230.308z"/>
				<rect x="295.849" y="1378.35" style="fill:#B7805A;" width="100.131" height="21.176"/>
			</g>
			<g>
				<g>
					<path style="fill:#FF916B;" d="M371.152,1194.665v33.536c0,11.548-9.376,20.924-20.924,20.924h-0.01
						c-11.548,0-20.924-9.376-20.924-20.924v-33.536H371.152z"/>
					<path style="fill:#EF5435;" d="M371.152,1208.949c0,0-8.875,22.176-41.858,16.883v-31.166h34.058L371.152,1208.949z"/>
				</g>
				<path style="fill:#FF916B;" d="M305.749,1130.411c0,0-4.585,82.012,51.654,81.988c53.598-0.023,44.413-81.476,44.413-81.476
					l-47.219-23.92L305.749,1130.411z"/>
				<path style="fill:#282B2A;" d="M343.082,1135.366c3.182,3.711,5.13,10.891,1.398,14.18c-2.458,2.166-6.805,2.139-10.703,0.102
					c2.561,1.934,3.335,5.371,1.981,7.966c-1.55,2.972-5.568,4.223-8.818,2.417c-0.1,0.416-1.465,5.706-6.224,7.381
					c-4.453,1.567-9.999-0.692-12.663-5.724c-1.478-2.217-6.213-9.913-3.787-17.797c3.935-12.786,23.5-15.654,33.367-12.133
					C339.183,1132.311,341.327,1133.319,343.082,1135.366z"/>
				<path style="fill:#FED01E;" d="M408.149,1128.385c-3.007,3.059-6.098,5.179-6.098,5.179
					c-65.266-0.063-92.34,19.358-97.592,23.732c-0.042-0.104-0.073-0.198-0.105-0.292c-1.858-5.169-3.038-10.702-3.425-16.486
					c-2.099-31.584,20.328-58.783,50.075-60.756c7.298-0.491,14.356,0.585,20.882,2.955c2.245,0.814,4.437,1.785,6.546,2.892
					c9.637,5.064,17.729,13.083,23.127,23.012c2.255,4.124,4.041,8.583,5.273,13.292
					C407.387,1124.021,407.826,1126.182,408.149,1128.385z"/>
				<g>
					<g>
						<g>
							<path style="fill:#282B2A;" d="M387.066,1166.647c0,2.972-1.968,5.38-4.395,5.38c-2.427,0-4.395-2.409-4.395-5.38
								c0-2.971,1.968-5.38,4.395-5.38C385.098,1161.266,387.066,1163.675,387.066,1166.647z"/>
						</g>
						<g>
							<path style="fill:#282B2A;" d="M387.349,1154.35c-0.238,0-0.478-0.068-0.691-0.209c-2.361-1.567-5.621-1.568-7.983,0
								c-0.575,0.382-1.351,0.225-1.733-0.349c-0.382-0.575-0.225-1.351,0.35-1.733c1.592-1.058,3.451-1.617,5.375-1.617
								c1.924,0,3.783,0.559,5.375,1.617c0.575,0.382,0.732,1.157,0.35,1.733C388.151,1154.154,387.754,1154.35,387.349,1154.35z"/>
						</g>
					</g>
					<g>
						<g>
							<path style="fill:#282B2A;" d="M353.655,1166.647c0,2.972-1.967,5.38-4.395,5.38c-2.427,0-4.395-2.409-4.395-5.38
								c0-2.971,1.968-5.38,4.395-5.38C351.687,1161.266,353.655,1163.675,353.655,1166.647z"/>
						</g>
						<g>
							<path style="fill:#282B2A;" d="M353.938,1154.35c-0.238,0-0.478-0.068-0.69-0.209c-2.361-1.567-5.621-1.568-7.984,0
								c-0.575,0.382-1.351,0.225-1.733-0.349c-0.382-0.575-0.225-1.351,0.35-1.733c1.592-1.058,3.451-1.617,5.375-1.617
								c1.924,0,3.783,0.559,5.375,1.617c0.575,0.382,0.732,1.157,0.35,1.733C354.74,1154.154,354.343,1154.35,353.938,1154.35z"/>
						</g>
					</g>
					<path style="fill:#EF5435;" d="M367.057,1170.692c0,0,8.695,13.367,0,16.279
						C367.057,1186.971,382.221,1187.936,367.057,1170.692z"/>
				</g>
				<path style="fill:#282B2A;" d="M374.492,1126.948c-3.568,3.001-5.733,9.243-2.438,13.129c2.7,3.183,8.264,3.838,12.566,0.75
					c-1.543,2.61-1.448,5.78,0.188,7.878c2.154,2.762,6.748,3.368,10.128,0.75c1.263,2.506,3.934,3.933,6.564,3.564
					c3.013-0.424,5.39-3.123,5.439-6.377c2.4-0.761,4.279-2.542,4.689-4.689c0.602-3.156-2.006-6.934-6.377-7.69
					c0.596-3.863-0.578-6.083-1.125-6.939c-2.976-4.655-11.25-6.233-19.881-2.438
					C383.573,1124.728,378.443,1123.625,374.492,1126.948z"/>
				<path style="fill:#FFB50D;" d="M406.834,1121.912l-77.535,16.005c34.716-13.333,42.516-36.898,42.589-55.201
					c2.245,0.814,4.437,1.785,6.546,2.892c9.637,5.064,17.729,13.083,23.127,23.012
					C403.816,1112.745,405.602,1117.203,406.834,1121.912z"/>
				<path style="fill:#D38D00;" d="M402.045,1133.561c-65.268-0.056-92.334,19.364-97.59,23.732
					c-0.665,0.546-0.979,0.861-0.979,0.861c0.288-0.385,0.714-0.702,0.876-1.146c13.124-36.08,95.569-46.92,113.736-36.685
					C431.377,1127.809,402.045,1133.561,402.045,1133.561z"/>
				<g>
					<path style="fill:#FF916B;" d="M318.214,1163.759c2.028,7.954-0.817,15.547-6.355,16.959
						c-5.538,1.412-11.672-3.892-13.7-11.846c-2.028-7.954,0.817-15.547,6.356-16.959
						C310.052,1150.5,316.186,1155.804,318.214,1163.759z"/>
					<path style="fill:#EF5435;" d="M310.67,1173.342c0,0-1.968-2.307,0.37-6.569c2.338-4.262-1.236-11.468-6.002-9.91
						c-4.055,1.325-6.441,11.842-0.089,16.859C311.302,1178.74,310.67,1173.342,310.67,1173.342z"/>
				</g>
				<g>
					<path style="fill:#FFFFFF;" d="M376.004,1193.643c0,1.805-0.842,3.478-2.281,4.848c-2.3,2.197-6.115,3.63-10.431,3.63
						c-4.316,0-8.141-1.433-10.431-3.63c-1.439-1.37-2.291-3.042-2.291-4.848c0-4.684,5.698-1.541,12.722-1.541
						C370.315,1192.102,376.004,1188.959,376.004,1193.643z"/>
				</g>
			</g>
			<g>
				<g>
					<path style="fill:#BEC0CD;" d="M422.155,1562.978l10.782,88.069c0.959,7.833,7.611,13.72,15.503,13.72h67.489
						c7.892,0,14.544-5.887,15.503-13.72l10.782-88.069H422.155z"/>
					<g>
						<path style="fill:#723F1D;" d="M538.85,1562.979h-9.982c-1.62-34.221-21.933-61.363-46.683-61.363
							c-24.75,0-45.063,27.143-46.683,61.363h-9.982c1.72-39.729,26.47-71.333,56.665-71.333S537.13,1523.249,538.85,1562.979z"/>
					</g>
					<path style="fill:#FF3333;" d="M536.47,1562.979v24.774c0,4.3-3.477,7.776-7.777,7.776c-4.112,0-7.489-3.19-7.764-7.24
						c-0.012-0.174-0.025-0.349-0.025-0.535v-5.16c-0.274-4.05-3.639-7.253-7.764-7.253c-4.274,0-7.739,3.452-7.789,7.701v0.561
						c0,4.3-3.477,7.789-7.776,7.789s-7.789-3.489-7.789-7.789v-1.383c0-4.312-3.477-7.789-7.776-7.789
						c-4.312,0-7.789,3.477-7.789,7.789v24.637c0,4.299-3.477,7.776-7.789,7.776c-4.287,0-7.776-3.477-7.776-7.776v-25.086
						c-0.598-3.714-3.801-6.53-7.664-6.53c-4.299,0-7.789,3.489-7.789,7.789v0.548h-0.125c-0.623,3.664-3.813,6.456-7.664,6.456
						c-4.287,0-7.776-3.477-7.776-7.777v-19.278H536.47z"/>
					<path style="opacity:0.6;fill:#BEC0CD;" d="M542.214,1562.977l-10.786,88.069c-0.95,7.831-7.612,13.719-15.494,13.719h-67.49
						c-2.85,0-5.534-0.762-7.852-2.119h44.99c7.883,0,14.544-5.889,15.494-13.72l10.525-85.949H542.214z"/>
				</g>
				<g>
					<path style="fill:#FF916B;" d="M468.705,1468.551c0,0-15.882,17.647-13.764,24.705c2.118,7.059,11.647,0,11.647,0
						s-3.96,14.091,8.393,16.562c12.353,2.471,33.253,8.496,21.96-42.679C485.646,1415.963,468.705,1468.551,468.705,1468.551z"/>
					<path style="fill:#ECDFC3;" d="M417.172,1311.324c0,0,18.073,16.434,27.355,42.745c0.574,1.64,1.19,4.281,1.827,7.695
						c0.042,0.177,0.073,0.355,0.094,0.532c0.073,0.334,0.125,0.679,0.188,1.024c0.031,0.156,0.063,0.323,0.083,0.48
						c0.052,0.25,0.094,0.522,0.136,0.783c0.219,1.263,0.397,2.339,0.533,3.216c0.031,0.198,0.063,0.397,0.094,0.595
						c0.021,0.104,0.031,0.198,0.042,0.292c0.031,0.157,0.052,0.314,0.073,0.47c0.021,0.125,0.042,0.261,0.063,0.397
						c0.031,0.198,0.052,0.366,0.073,0.491c0.01,0.063,0.021,0.125,0.031,0.198c0.01,0.104,0.021,0.167,0.021,0.167
						c5.033,33.463,15.975,101.319,15.975,101.319c18,7.507,37.504,0,37.504,0s3.863-115.133-20.642-167.452
						c-22.344-47.705-64.709-65.982-64.709-65.982l1.26,42.841V1311.324z"/>
					<path style="fill:#C4B290;" d="M446.115,1362.563c-0.553-2.788-1.086-4.97-1.587-6.4
						c-6.442-18.251-14.398-31.741-21.863-38.298c-0.992-14.2-1.953-27.543-2.84-39.028
						C442.273,1312.916,442.868,1344.74,446.115,1362.563z"/>
				</g>
			</g>
		</g>
	</g>
	<g>
		<ellipse style="fill:#D8D8D8;" cx="1123.165" cy="1929.809" rx="166.622" ry="14.007"/>
		<g>
			<g>
				<g>
					<g>
						<path style="fill:#3F3B38;" d="M1145.967,1928.806h97.773c0.297-26.643-28.096-34.013-57.215-41.7v-14.486l-15.355-10.419
							l-22.872,6.375l0.274,22.872C1142.791,1904.197,1145.967,1928.806,1145.967,1928.806z"/>
						<path style="fill:#2C2825;" d="M1145.967,1928.806h97.773c0.297-26.643-28.096-34.013-57.215-41.7
							c0,0-8.112,7.243-37.953,4.341C1142.791,1904.197,1145.967,1928.806,1145.967,1928.806z"/>
					</g>
					<path style="fill:#777576;" d="M1208.691,1665.821c-0.804,36.21-11.683,208.058-11.683,208.058h-54.46l-3.132-198.013
						l-38.538-131.713v-108.794c5.168,0.699,10.974,1.545,17.008,2.464c26.322,4.02,56.82,9.386,56.82,9.386
						s1.055,11.151,2.621,28.504C1182.077,1528.23,1209.307,1637.516,1208.691,1665.821z"/>
					<g>
						<path style="fill:#3F3B38;" d="M997.705,1928.806h97.773c0.297-26.643-28.096-34.013-57.215-41.7v-14.486l-15.355-10.419
							l-22.872,6.375l0.274,22.872C994.529,1904.197,997.705,1928.806,997.705,1928.806z"/>
						<path style="fill:#2C2825;" d="M997.705,1928.806h97.773c0.297-26.643-28.096-34.013-57.215-41.7
							c0,0-8.111,7.243-37.953,4.341C994.529,1904.197,997.705,1928.806,997.705,1928.806z"/>
					</g>
					<path style="fill:#777576;" d="M1107.881,1501.878c-1.148,13.271-3.028,29.506-5.419,47.705
						c-15.755,119.758-53.719,324.296-53.719,324.296h-54.46l23.649-372.93l2.401-37.912l7.58-19.88l4.563-11.954
						c5.168,0.699,10.973,1.545,17.008,2.464c19.577,2.986,41.461,6.724,51.39,8.436c3.425,0.595,5.429,0.95,5.429,0.95
						s0.522,5.575,1.389,14.982c0.355,3.895,0.773,8.436,1.232,13.521C1109.489,1477.812,1109.071,1488.284,1107.881,1501.878z"/>
				</g>
				<path style="fill:#4F4F4F;" d="M1176.885,1470.942c-0.679,0.606-25.037,21.686-69.004,30.936
					c-2.276,0.48-4.615,0.93-7.006,1.337c-22.97,3.967-50.795,4.563-82.943-2.266l2.401-37.912l7.58-19.88l72.961,13.605
					l6.818,1.274L1176.885,1470.942z"/>
				<path style="fill:#4F4F4F;" d="M1117.683,1538.411c0,0-11.529,20.647-38.117,6.088
					C1079.566,1544.5,1098.624,1545.294,1117.683,1538.411z"/>
			</g>
			<g>
				<g>
					<path style="fill:#ECDFC3;" d="M1181.667,1468.939c0,0-83.653,27.146-167.306,0c0,0,0-0.115,0.01-0.334
						c0-0.052,0.522-8.656,1.368-22.479c0.167-2.6,0.334-5.377,0.512-8.332c0.355-5.607,0.741-11.82,1.148-18.46
						c0.178-2.715,0.345-5.492,0.533-8.342c1.284-20.318,2.788-43.831,4.333-66.801c0.345-5.231,0.699-10.431,1.044-15.557
						c0.261-3.801,0.522-7.56,0.783-11.256c0.282-4.009,0.564-7.945,0.835-11.798c0.689-9.783,1.368-18.982,2.005-27.23
						c1.744-22.49,3.185-37.838,3.915-38.454c1.399-1.169,13.458-3.967,26.938-6.797c3.947-0.836,8.008-1.671,11.965-2.475
						c14.617-2.955,27.742-5.43,27.742-5.43s12.498,2.276,26.687,5.085c4.302,0.856,8.76,1.754,13.072,2.662
						c13.312,2.788,25.236,5.586,26.875,6.954c0.637,0.543,1.88,12.299,3.404,30.237c1.702,20.036,3.78,47.799,5.805,76.219
						c0.386,5.409,0.773,10.838,1.149,16.235c1.169,16.57,2.297,32.931,3.289,47.653c0.188,2.84,0.376,5.628,0.553,8.343
						c0.449,6.609,0.867,12.8,1.242,18.418c0.188,2.945,0.376,5.732,0.543,8.342
						C1181.082,1459.866,1181.667,1468.939,1181.667,1468.939z"/>
					<g>
						<g>
							<path style="fill:#777576;" d="M1141.931,1334.921c-0.079,0-0.157-0.001-0.237-0.003c-4.323-0.128-7.723-3.737-7.595-8.06
								c1.544-51.982-4.503-89.133-4.564-89.503c-0.708-4.265,2.175-8.298,6.441-9.007c4.263-0.713,8.298,2.173,9.008,6.437
								c0.26,1.564,6.362,38.92,4.769,92.538C1149.628,1331.566,1146.148,1334.921,1141.931,1334.921z"/>
						</g>
						<g>
							<path style="fill:#777576;" d="M1061.891,1336.075c-0.078,0-0.157-0.001-0.237-0.003c-4.323-0.128-7.723-3.737-7.595-8.06
								c1.548-52.102-4.502-89.13-4.563-89.499c-0.711-4.266,2.171-8.301,6.437-9.011c4.258-0.706,8.301,2.171,9.011,6.438
								c0.26,1.564,6.362,38.92,4.769,92.537C1069.588,1332.72,1066.108,1336.075,1061.891,1336.075z"/>
						</g>
						<path style="fill:#777576;" d="M1181.669,1471.029c0,0-83.653,27.146-167.306,0c0,0,0-0.115,0.01-0.335
							c0-0.052,0.522-8.656,1.368-22.479c0.167-2.6,0.334-5.377,0.512-8.332c0.355-5.607,0.741-11.82,1.148-18.46
							c0.031-0.511,0.063-1.023,0.104-1.535c0.136-2.224,0.272-4.49,0.428-6.807c0.7-11.12,1.472-23.2,2.276-35.635
							c0.668-10.263,1.357-20.767,2.057-31.166c28.535-14.304,39.811-44.76,39.811-44.76c35.833,12.122,80.103,0,80.103,0
							c7.726,28.389,22.051,41.336,31.156,46.922c1.577,21.978,3.122,44.363,4.437,63.888c0.188,2.84,0.376,5.628,0.553,8.342
							c0.449,6.609,0.866,12.801,1.242,18.418c0.188,2.945,0.376,5.732,0.543,8.343
							C1181.084,1461.955,1181.669,1471.029,1181.669,1471.029z"/>
						<g>
							<circle style="fill:#4F4F4F;" cx="1139.018" cy="1317.046" r="6.615"/>
							<circle style="fill:#4F4F4F;" cx="1064.887" cy="1317.046" r="6.615"/>
						</g>
					</g>
					<path style="fill:#969696;" d="M1049.986,1414.032v5.952c0,27.738,22.486,50.223,50.223,50.223l0,0
						c27.737,0,50.223-22.486,50.223-50.223v-5.952H1049.986z"/>
				</g>
				<path style="fill:#777576;" d="M1124.233,1231.906c0,15.056-12.206,27.261-27.261,27.261c-15.056,0-27.251-12.205-27.251-27.261
					c0-0.428,0.01-0.867,0.031-1.284c14.617-2.955,27.742-5.43,27.742-5.43s12.498,2.276,26.687,5.085
					C1124.212,1230.81,1124.233,1231.353,1124.233,1231.906z"/>
			</g>
			<g>
				<path style="fill:#9A663C;" d="M847.11,1457.446c-0.545,4.646,2.78,8.854,7.426,9.399l437.804,60.997l1.974-16.825
					L856.51,1450.02C851.864,1449.475,847.656,1452.8,847.11,1457.446z"/>
				<path style="fill:#483F40;" d="M1349.317,1469.264l-36.873-5.612c-7.544-1.148-14.591,4.037-15.739,11.582l-14.394,94.569
					c-1.148,7.544,4.037,14.591,11.581,15.74l36.873,5.612c7.544,1.148,14.591-4.037,15.739-11.581l14.394-94.57
					C1362.046,1477.46,1356.861,1470.413,1349.317,1469.264z"/>
			</g>
			<g>
				<g>
					<path style="fill:#FF916B;" d="M1118.223,1194.005v33.536c0,11.548-9.376,20.924-20.924,20.924h-0.01
						c-11.548,0-20.924-9.376-20.924-20.924v-33.536H1118.223z"/>
					<path style="fill:#EF5435;" d="M1118.223,1208.288c0,0-8.875,22.176-41.858,16.883v-31.166h34.058L1118.223,1208.288z"/>
				</g>
				<path style="fill:#FF916B;" d="M1052.82,1129.751c0,0-4.585,82.012,51.654,81.988c53.598-0.023,44.413-81.476,44.413-81.476
					l-47.219-23.92L1052.82,1129.751z"/>
				<path style="fill:#282B2A;" d="M1076.365,1137.258c0,0,0.043,37.775-20.125,36.71l-3.51-36.71H1076.365z"/>
				<path style="fill:#FED01E;" d="M1155.22,1127.725c-3.007,3.059-6.098,5.179-6.098,5.179
					c-65.266-0.063-92.34,19.358-97.592,23.732c-0.042-0.104-0.073-0.198-0.104-0.292c-1.859-5.168-3.038-10.702-3.425-16.486
					c-2.099-31.584,20.328-58.783,50.075-60.756c7.298-0.491,14.356,0.585,20.882,2.955c2.245,0.814,4.437,1.785,6.547,2.892
					c9.637,5.064,17.729,13.083,23.127,23.012c2.255,4.124,4.041,8.583,5.273,13.292
					C1154.458,1123.36,1154.896,1125.522,1155.22,1127.725z"/>
				<path style="fill:#282B2A;" d="M1098.83,1130.17c0,0,39.382,27.01,49.962,0.87l-17.492-8.282L1098.83,1130.17z"/>
				<g>
					<g>
						<g>
							<path style="fill:#282B2A;" d="M1134.136,1165.987c0,2.972-1.968,5.38-4.395,5.38s-4.395-2.409-4.395-5.38
								c0-2.971,1.968-5.38,4.395-5.38S1134.136,1163.015,1134.136,1165.987z"/>
						</g>
						<g>
							<path style="fill:#282B2A;" d="M1134.42,1153.69c-0.238,0-0.478-0.068-0.691-0.209c-2.361-1.567-5.621-1.568-7.984,0
								c-0.575,0.382-1.351,0.225-1.733-0.349c-0.382-0.575-0.225-1.351,0.35-1.733c1.592-1.058,3.451-1.617,5.375-1.617
								c1.924,0,3.783,0.559,5.375,1.617c0.575,0.382,0.732,1.157,0.35,1.733C1135.222,1153.494,1134.825,1153.69,1134.42,1153.69z"
								/>
						</g>
					</g>
					<g>
						<g>
							<path style="fill:#282B2A;" d="M1100.725,1165.987c0,2.972-1.968,5.38-4.395,5.38s-4.395-2.409-4.395-5.38
								c0-2.971,1.968-5.38,4.395-5.38S1100.725,1163.015,1100.725,1165.987z"/>
						</g>
						<g>
							<path style="fill:#282B2A;" d="M1101.009,1153.69c-0.238,0-0.478-0.068-0.691-0.209c-2.361-1.567-5.621-1.568-7.983,0
								c-0.575,0.382-1.351,0.225-1.733-0.349c-0.382-0.575-0.225-1.351,0.349-1.733c1.592-1.058,3.451-1.617,5.375-1.617
								c1.924,0,3.783,0.559,5.375,1.617c0.575,0.382,0.732,1.157,0.35,1.733C1101.811,1153.494,1101.414,1153.69,1101.009,1153.69z
								"/>
						</g>
					</g>
					<path style="fill:#EF5435;" d="M1114.127,1167.943c0,0,8.695,13.367,0,16.279
						C1114.127,1184.222,1129.292,1185.187,1114.127,1167.943z"/>
				</g>
				<path style="fill:#FFB50D;" d="M1153.904,1121.252l-77.535,16.005c34.716-13.333,42.516-36.898,42.589-55.201
					c2.245,0.814,4.437,1.785,6.547,2.892c9.637,5.064,17.729,13.083,23.127,23.012
					C1150.887,1112.084,1152.672,1116.543,1153.904,1121.252z"/>
				<path style="fill:#D38D00;" d="M1149.116,1132.901c-65.268-0.056-92.334,19.364-97.59,23.731
					c-0.665,0.547-0.979,0.861-0.979,0.861c0.288-0.385,0.714-0.702,0.876-1.146c13.124-36.08,95.569-46.92,113.736-36.685
					C1178.447,1127.149,1149.116,1132.901,1149.116,1132.901z"/>
				<path style="fill:#282B2A;" d="M1145.279,1176.964c0,0-4.876,9.635-12.023,11.357c-7.147,1.723-6.369-4.354-21.854-4.089
					c-15.485,0.265-24.777,8.701-31.659,4.621c-6.882-4.08-12.086-10.246-13.896-18.821s-13.088-1.389-9.883,11.277
					c2.779,10.985,12.573,31.235,32.955,35.999C1109.301,1222.073,1144.33,1216.558,1145.279,1176.964z"/>
				<g>
					<path style="fill:#FFFFFF;" d="M1124.119,1192.982c0,1.805-0.842,3.478-2.281,4.848c-2.3,2.197-6.115,3.63-10.431,3.63
						c-4.316,0-8.141-1.433-10.431-3.63c-1.439-1.37-2.291-3.042-2.291-4.848c0-4.684,5.698-1.541,12.722-1.541
						C1118.43,1191.442,1124.119,1188.298,1124.119,1192.982z"/>
				</g>
				<g>
					<path style="fill:#FF916B;" d="M1065.285,1163.098c2.028,7.954-0.817,15.548-6.356,16.96
						c-5.538,1.412-11.672-3.892-13.7-11.846c-2.028-7.954,0.817-15.547,6.356-16.959
						C1057.123,1149.84,1063.256,1155.144,1065.285,1163.098z"/>
					<path style="fill:#EF5435;" d="M1057.741,1172.682c0,0-1.968-2.307,0.37-6.569c2.338-4.262-1.236-11.468-6.002-9.91
						c-4.055,1.325-6.441,11.842-0.089,16.859C1058.372,1178.08,1057.741,1172.682,1057.741,1172.682z"/>
				</g>
			</g>
			<g>
				<path style="fill:#FF916B;" d="M973.667,1443.613c0,0,15.882,17.647,13.764,24.705c-2.118,7.059-11.647,0-11.647,0
					s3.96,14.091-8.393,16.562c-12.353,2.471-33.253,8.496-21.96-42.679S973.667,1443.613,973.667,1443.613z"/>
				<path style="fill:#ECDFC3;" d="M974.696,1354.057c-0.021,0.011-0.031,0.021-0.031,0.021l3.132,88.727l-38.256,10.337
					c0,0-40.104-95.389-19.984-131.306c27.335-48.811,111.468-81.847,111.468-81.847l4.375,48.342l1.013,11.12l1.931,21.32
					l-4.437,2.318L974.696,1354.057z"/>
				<path style="fill:#C4B290;" d="M1026.793,1285.619c-0.271,3.853-2.419,27.75-2.701,31.759
					c-0.261,3.696-0.522,7.455-0.783,11.256l-48.613,25.423C975.855,1353.253,1007.735,1334.921,1026.793,1285.619z"/>
			</g>
			<g>
				<g>
					<path style="fill:#FF916B;" d="M1158.775,1473.183c0,0-19.493,13.552-19.044,20.908c0.449,7.356,11.339,2.66,11.339,2.66
						s-7.074,12.814,4.388,18.041c11.462,5.227,30.433,15.868,31.128-36.535C1187.28,1425.856,1158.775,1473.183,1158.775,1473.183z
						"/>
					<path style="fill:#ECDFC3;" d="M1190.907,1486.46c0,0-21.613-5.659-35.687-16.257l23.315-104.932l-4.469-8.656l-19.274-37.285
						l9.334-79.435c0,0,66.321,45.71,75.593,110.664C1248.186,1409.896,1190.907,1486.46,1190.907,1486.46z"/>
				</g>
				<path style="fill:#C4B290;" d="M1178.535,1365.271l-4.469-8.656c-0.24-3.425-0.491-6.849-0.731-10.264
					c-2.025-28.42-4.103-56.183-5.805-76.219C1187.796,1323.643,1178.535,1365.271,1178.535,1365.271z"/>
			</g>
		</g>
	</g>
	<g>
		<ellipse style="fill:#D8D8D8;" cx="1806.482" cy="1930.487" rx="179.857" ry="14.007"/>
		<g>
			<g>
				<g>
					<path style="fill:#1A7188;" d="M1760.895,1269.08l-4.511,18l-14.2,56.684l-93.029,65.517c-0.01,0.011-0.01,0.011-0.01,0.011
						s-14.826-38.631,10.587-78.756c25.413-40.135,82.452-77.952,82.452-77.952L1760.895,1269.08z"/>
					<path style="fill:#044D5E;" d="M1756.384,1287.08l-14.2,56.684l-93.029,65.517c0.992-0.814,64.473-52.946,96.923-109.003
						C1750.756,1292.186,1754.098,1288.114,1756.384,1287.08z"/>
				</g>
				<g>
					<path style="fill:#9A663C;" d="M1666.695,1263.881h-88.042c-6.095,0-11.037,4.942-11.037,11.037v126.452
						c0,6.095,4.942,11.037,11.037,11.037h88.042c6.095,0,11.037-4.942,11.037-11.037v-126.452
						C1677.732,1268.823,1672.79,1263.881,1666.695,1263.881z"/>
					<path style="fill:#F6EBD8;" d="M1656.845,1287.808h-68.341c-6.096,0-11.037,4.942-11.037,11.037v87.793
						c0,6.096,4.941,11.037,11.037,11.037h68.341c6.096,0,11.037-4.941,11.037-11.037v-87.793
						C1667.882,1292.75,1662.941,1287.808,1656.845,1287.808z"/>
					<path style="fill:#FF916B;" d="M1644.846,1263.881c0,10.964-9.927,19.853-22.172,19.853s-22.172-8.888-22.172-19.853
						C1600.502,1252.917,1644.846,1252.917,1644.846,1263.881z"/>
				</g>
			</g>
			<g>
				<path style="fill:#FF916B;" d="M1942.244,1092.954c3.285-0.454,6.885,4.058,9.599,8.521
					c26.938-27.633,47.47,0.492,32.902,18.672c-14.854,18.538-16.386,28.588-16.386,28.588l-24.853-12.71
					C1943.506,1136.024,1935.891,1093.832,1942.244,1092.954z"/>
				<path style="fill:#1A7188;" d="M1977.504,1135.144c0,0-8.906,97.709-18.719,130.194c0,0,0,0.011-0.012,0.023
					c-6.837,22.509-77.165,62.156-99.523,74.282c-4.267,2.314-6.79,3.628-6.79,3.628l1.849-7.324l8.848-34.984l11.975-47.389
					l37.379-21.393l27.287-101.86L1977.504,1135.144z"/>
				<path style="fill:#044D5E;" d="M1957.331,1267.535c-6.139,20.214-69.297,55.818-89.375,66.707
					c-1.503-1.096-2.986-2.203-4.437-3.32c-20.422-15.651-34.685-33.015,4.124-31.521c1.295,0.052,2.568,0.083,3.822,0.104
					C1936.679,1300.758,1956.725,1268.527,1957.331,1267.535z"/>
			</g>
			<g>
				<g>
					<g>
						<path style="fill:#3F3B38;" d="M1761.559,1929.484h-97.773c-0.297-26.643,28.096-34.013,57.215-41.7l1.044-14.486
							l15.355-10.419l22.872,6.375l-1.318,22.872C1764.735,1904.875,1761.559,1929.484,1761.559,1929.484z"/>
						<path style="fill:#2C2825;" d="M1761.559,1929.484h-97.773c-0.297-26.643,28.096-34.013,57.215-41.7
							c0,0,8.112,7.243,37.953,4.341C1764.735,1904.875,1761.559,1929.484,1761.559,1929.484z"/>
					</g>
					<path style="fill:#106183;" d="M1808.576,1425.596v108.471l-0.355,2.893l-41.576,338.935h-53.426l12.602-366.99l0.658-19.2
						l1.023-29.851c0,0,20.955-10.546,38.245-20.204c12.675-7.079,23.377-13.687,22.396-15.327
						c-0.699-1.18,7.852-0.408,20.078,1.222C1808.336,1425.564,1808.451,1425.575,1808.576,1425.596z"/>
				</g>
				<g>
					<g>
						<path style="fill:#3F3B38;" d="M1854.886,1929.484h97.773c0.297-26.643-28.096-34.013-57.215-41.7l-1.044-14.486
							l-15.355-10.419l-22.872,6.375l1.318,22.872C1851.71,1904.875,1854.886,1929.484,1854.886,1929.484z"/>
						<path style="fill:#2C2825;" d="M1854.886,1929.484h97.773c0.297-26.643-28.096-34.013-57.215-41.7
							c0,0-8.111,7.243-37.953,4.341C1851.71,1904.875,1854.886,1929.484,1854.886,1929.484z"/>
					</g>
					<path style="fill:#106183;" d="M1807.869,1425.592v108.472l41.931,341.826h53.426l-13.26-386.19l-1.023-29.851
						c0,0-62.959-31.667-60.641-35.531C1829.012,1423.127,1820.284,1423.921,1807.869,1425.592z"/>
				</g>
				<path style="fill:#044D5E;" d="M1892.375,1478.98c0,0-0.866,1.034-2.683,2.746c-7.695,7.278-32.492,26.781-81.116,31.866
					c-0.23,0.031-0.47,0.052-0.71,0.073c-22.198,2.254-49.344,1.503-82.045-4.762l0.658-19.2l1.023-29.851
					c0,0,20.955-10.546,38.245-20.204l42.119,13.083l0.71,0.219l80.991,25.152L1892.375,1478.98z"/>
				<path style="fill:#044D5E;" d="M1828.021,1528.51c0,0-17.647,16.235-37.058,8.47
					C1790.963,1536.98,1811.61,1535.921,1828.021,1528.51z"/>
			</g>
			<g>
				<g>
					<path style="fill:#FEA200;" d="M1893.006,1481.629c0,0-83.653,27.146-167.306,0c0,0,0-0.114,0.01-0.333
						c0-0.053,0.522-8.656,1.368-22.479c0.167-2.6,0.334-5.378,0.512-8.332c0.24-3.852,0.501-7.998,0.773-12.372
						c0.125-1.984,0.25-4.019,0.376-6.087c0.178-2.714,0.344-5.492,0.532-8.343c0.282-4.448,0.574-9.042,0.877-13.751
						c3.122-49.104,7.215-110.58,9.856-140.045v-0.01c0.95-10.462,1.712-16.894,2.182-17.29c0.699-0.585,4.02-1.566,8.843-2.757
						c4.886-1.201,11.308-2.62,18.094-4.041c18.512-3.905,39.707-7.904,39.707-7.904s21.226,3.863,39.759,7.747
						c5.795,1.211,11.329,2.422,15.86,3.519c5.878,1.43,10.086,2.662,11.015,3.435c0.355,0.292,0.887,3.998,1.545,10.263
						c2.694,25.424,7.518,93.04,11.172,146.445c0.324,4.667,0.626,9.23,0.929,13.636c0.188,2.84,0.376,5.627,0.553,8.343
						c0.146,2.109,0.282,4.176,0.417,6.201c0.292,4.302,0.574,8.395,0.825,12.216c0.188,2.945,0.376,5.732,0.543,8.343
						C1892.422,1472.556,1893.006,1481.629,1893.006,1481.629z"/>
					<path style="fill:#FFF2DB;" d="M1856.668,1247.209l-47.845,72.133l-47.783-71.944c22.277-4.699,47.783-9.511,47.783-9.511
						S1834.366,1242.535,1856.668,1247.209z"/>
					<path style="fill:#1A7188;" d="M1848.587,1245.633l-39.759,54.648l-39.707-54.491c18.512-3.905,39.707-7.904,39.707-7.904
						S1830.054,1241.749,1848.587,1245.633z"/>
					<g>
						<path style="fill:#FFF2DB;" d="M1890.083,1437.474c-31.062,0.815-62.875,1.233-95.044,1.233
							c-22.521,0-44.771-0.199-66.676-0.596c0.125-1.984,0.25-4.019,0.376-6.087c0.178-2.714,0.344-5.492,0.532-8.343
							c0.282-4.448,0.574-9.042,0.877-13.751c21.32,0.376,42.985,0.564,64.891,0.564c31.532,0,62.708-0.407,93.144-1.201
							c0.324,4.667,0.626,9.23,0.929,13.636c0.188,2.84,0.376,5.627,0.553,8.343
							C1889.812,1433.381,1889.947,1435.449,1890.083,1437.474z"/>
					</g>
				</g>
				<g>
					<path style="fill:#FFF2DB;" d="M1864.44,1412.687c0.522,4.291-2.537,8.196-6.828,8.718c-0.324,0.032-0.637,0.052-0.95,0.052
						c-3.905,0-7.277-2.903-7.768-6.88c-0.376-3.111-9.031-77.2,15.557-165.427c5.878,1.43,10.086,2.662,11.015,3.435
						c0.355,0.292,0.887,3.998,1.545,10.263C1856.453,1343.829,1864.357,1411.988,1864.44,1412.687z"/>
				</g>
				<g>
					<path style="fill:#FFF2DB;" d="M1766.41,1414.577c-0.491,3.977-3.863,6.88-7.768,6.88c-0.313,0-0.637-0.01-0.961-0.052
						c-4.291-0.522-7.34-4.427-6.818-8.718c0.031-0.303,1.556-13.458,1.556-34.904c0-26.29-2.287-65.026-12.414-107.897v-0.01
						c0.95-10.462,1.712-16.894,2.182-17.29c0.699-0.585,4.02-1.566,8.843-2.757
						C1775.389,1337.752,1766.786,1411.476,1766.41,1414.577z"/>
				</g>
			</g>
			<g>
				<g>
					<path style="fill:#FF916B;" d="M1829.074,1209.421v33.536c0,11.548-9.376,20.924-20.924,20.924h-0.01
						c-11.548,0-20.924-9.376-20.924-20.924v-33.536H1829.074z"/>
					<path style="fill:#EF5435;" d="M1829.074,1223.705c0,0-8.875,22.176-41.858,16.883v-31.167h34.058L1829.074,1223.705z"/>
				</g>
				<path style="fill:#FF916B;" d="M1763.671,1145.167c0,0-4.585,82.012,51.654,81.988c53.598-0.023,44.413-81.476,44.413-81.476
					l-47.219-23.92L1763.671,1145.167z"/>
				<path style="fill:#282B2A;" d="M1787.216,1152.674c0,0,0.043,37.775-20.125,36.71l-3.51-36.71H1787.216z"/>
				<path style="fill:#282B2A;" d="M1795.695,1152.158c0,0,20.696,26.169,36.024-2.533c0,0,37.485,21.415,31.381-1.308
					C1857.984,1129.275,1795.695,1152.158,1795.695,1152.158z"/>
				<path style="fill:#FED01E;" d="M1866.072,1143.141c-3.007,3.059-6.098,5.179-6.098,5.179
					c-65.266-0.063-92.34,19.358-97.592,23.732c-0.042-0.104-0.073-0.198-0.104-0.292c-1.859-5.169-3.038-10.702-3.425-16.486
					c-2.099-31.584,20.328-58.783,50.075-60.756c7.298-0.491,14.356,0.585,20.882,2.955c2.245,0.814,4.437,1.785,6.546,2.892
					c9.637,5.064,17.729,13.083,23.127,23.012c2.255,4.124,4.041,8.583,5.273,13.292
					C1865.309,1138.777,1865.748,1140.938,1866.072,1143.141z"/>
				<g>
					<g>
						<g>
							<path style="fill:#282B2A;" d="M1844.988,1181.403c0,2.971-1.968,5.38-4.395,5.38c-2.427,0-4.395-2.409-4.395-5.38
								c0-2.972,1.968-5.38,4.395-5.38C1843.02,1176.022,1844.988,1178.431,1844.988,1181.403z"/>
						</g>
						<g>
							<path style="fill:#282B2A;" d="M1845.272,1169.106c-0.238,0-0.478-0.068-0.691-0.209c-2.361-1.567-5.621-1.568-7.983,0
								c-0.575,0.382-1.351,0.225-1.733-0.349c-0.382-0.575-0.225-1.351,0.35-1.733c1.592-1.058,3.451-1.617,5.375-1.617
								c1.924,0,3.783,0.559,5.375,1.617c0.575,0.382,0.732,1.157,0.35,1.733C1846.073,1168.91,1845.677,1169.106,1845.272,1169.106
								z"/>
						</g>
					</g>
					<g>
						<g>
							<path style="fill:#282B2A;" d="M1811.577,1181.403c0,2.971-1.968,5.38-4.395,5.38c-2.427,0-4.395-2.409-4.395-5.38
								c0-2.972,1.968-5.38,4.395-5.38C1809.609,1176.022,1811.577,1178.431,1811.577,1181.403z"/>
						</g>
						<g>
							<path style="fill:#282B2A;" d="M1811.861,1169.106c-0.238,0-0.478-0.068-0.691-0.209c-2.361-1.567-5.621-1.568-7.983,0
								c-0.575,0.382-1.351,0.225-1.733-0.349c-0.382-0.575-0.225-1.351,0.35-1.733c1.592-1.058,3.451-1.617,5.375-1.617
								c1.924,0,3.783,0.559,5.375,1.617c0.575,0.382,0.732,1.157,0.35,1.733C1812.662,1168.91,1812.266,1169.106,1811.861,1169.106
								z"/>
						</g>
					</g>
					<path style="fill:#EF5435;" d="M1824.979,1183.36c0,0,8.696,13.367,0,16.279
						C1824.979,1199.639,1840.144,1200.604,1824.979,1183.36z"/>
				</g>
				<path style="fill:#FFB50D;" d="M1864.756,1136.668l-77.535,16.005c34.716-13.333,42.516-36.898,42.589-55.201
					c2.245,0.814,4.437,1.785,6.546,2.892c9.637,5.064,17.729,13.083,23.127,23.012
					C1861.739,1127.501,1863.524,1131.959,1864.756,1136.668z"/>
				<path style="fill:#D38D00;" d="M1859.968,1148.317c-65.268-0.056-92.334,19.364-97.59,23.732
					c-0.665,0.546-0.979,0.861-0.979,0.861c0.288-0.385,0.714-0.702,0.876-1.146c13.124-36.08,95.569-46.92,113.736-36.685
					C1889.299,1142.565,1859.968,1148.317,1859.968,1148.317z"/>
				<path style="fill:#282B2A;" d="M1856.131,1192.38c0,0-4.876,9.635-12.023,11.357c-7.147,1.723-6.369-4.354-21.854-4.089
					c-15.485,0.265-24.777,8.701-31.659,4.621s-12.086-10.246-13.896-18.821c-1.81-8.575-13.088-1.389-9.883,11.277
					c2.779,10.985,12.573,31.235,32.955,35.999C1820.153,1237.489,1855.181,1231.974,1856.131,1192.38z"/>
				<g>
					<path style="fill:#FFFFFF;" d="M1834.971,1208.399c0,1.805-0.842,3.478-2.281,4.848c-2.3,2.197-6.115,3.63-10.431,3.63
						c-4.316,0-8.141-1.433-10.431-3.63c-1.439-1.37-2.291-3.042-2.291-4.848c0-4.684,5.698-1.541,12.722-1.541
						C1829.282,1206.858,1834.971,1203.715,1834.971,1208.399z"/>
				</g>
				<g>
					<path style="fill:#FF916B;" d="M1776.136,1178.515c2.028,7.954-0.817,15.547-6.356,16.959
						c-5.538,1.412-11.672-3.892-13.7-11.846c-2.028-7.954,0.817-15.548,6.356-16.96
						C1767.974,1165.256,1774.108,1170.56,1776.136,1178.515z"/>
					<path style="fill:#EF5435;" d="M1768.593,1188.098c0,0-1.968-2.307,0.37-6.569c2.338-4.262-1.236-11.468-6.002-9.91
						c-4.055,1.325-6.441,11.842-0.089,16.859C1769.224,1193.496,1768.593,1188.098,1768.593,1188.098z"/>
				</g>
			</g>
		</g>
	</g>
</g>
</svg>
